<ttFont>
          <CharString index="0">
            vvcurveto
            -16 11 -14 16 -1 vhcurveto
            16 17 16 14 18 11 1 7 rcurveline
            -9 10 -1 16 13 vvcurveto
            11 2 25 5 10 vhcurveto
            return
          </CharString>
          <CharString index="1">
            -65 -23 -104 -112 -68 -107 callsubr
            return
          </CharString>
          <CharString index="2">
            -102 callgsubr
            185 hmoveto
            -107 callgsubr
            return
          </CharString>
          <CharString index="3">
            rmoveto
            -3 -21 -18 -1 -22 hhcurveto
            hintmask 10010011
            -95 callsubr
            hintmask 01100011
            -95 callgsubr
            hintmask 10100011
            -55 callsubr
          </CharString>
          <CharString index="4">
            rmoveto
            3 30 29 2 31 hhcurveto
            25 34 -67 callgsubr
            -43 -7 -43 hhcurveto
            -31 -29 2 5 -30 hvcurveto
            3 50 13 56 23 42 rrcurveto
            -99 callgsubr
            -108 -27 84 105 -3 hvcurveto
            return
          </CharString>
          <CharString index="5">
            -92 callsubr
            130 94 vvcurveto
            220 5 69 19 92 vhcurveto
            -21 6 -5 -15 -9 -19 -9 -12 rlinecurve
            -107 8 -95 9 -104 12 rrcurveto
            147 -372 rmoveto
            -32 -43 2 98 callgsubr
            0 6 24 10 42 vhcurveto
            56 231 rlineto
            32 45 0 -5 52 hvcurveto
            3 -3 rlineto
            3 -67 2 -67 -155 vvcurveto
            -6 -35 -32 -1 -35 hhcurveto
            return
          </CharString>
          <CharString index="6">
            -106 callsubr
            29 30 return
          </CharString>
          <CharString index="7">
            rmoveto
            -132 89 -92 132 vhcurveto
            141 51 80 127 144 -87 callsubr
            -69 callgsubr
            return
          </CharString>
          <CharString index="8">
            -59 callsubr
            hintmask 1011100001000000
            -51 callsubr
            hintmask 1101100010000000
            -89 callgsubr
            hintmask 1101100000100000
            -45 callsubr
          </CharString>
          <CharString index="9">
            9 -17 28 -33 17 -11 17 11 28 33 9 17 return
          </CharString>
          <CharString index="10">
            -33 callgsubr
            hintmask 10100010
            -23 callgsubr
            hintmask 10010010
            -94 callgsubr
            hintmask 01010010
            -56 callgsubr
            hintmask 10010010
            -81 callgsubr
            return
          </CharString>
          <CharString index="11">
            42 212 -100 callsubr
            return
          </CharString>
          <CharString index="12">
            -54 -19 10 3 -54 -103 callgsubr
            2 -13 1 -12 -13 -39 -14 -179 -99 vvcurveto
            -152 42 -104 160 vhcurveto
            51 20 58 38 37 41 -4 -54 -2 -8 -7 -9 3 -14 rcurveline
            return
          </CharString>
          <CharString index="13">
            -49 callgsubr
            -35 20 -8 32 39 vvcurveto
            38 14 71 10 41 vhcurveto
            5 36 46 1 36 hhcurveto
            35 32 -2 -4 35 hvcurveto
            -2 -91 -5 -88 -4 -34 -70 callsubr
            rrcurveto
            return
          </CharString>
          <CharString index="14">
            10 3 -48 -103 callgsubr
            return
          </CharString>
          <CharString index="15">
            -92 callgsubr
            37 -8 return
          </CharString>
          <CharString index="16">
            -92 callsubr
            111 115 vvcurveto
            196 315 62 callgsubr
            rlinecurve
            -5 25 rlineto
            -34 callsubr
            -32 -25 -72 -86 -168 vhcurveto
            -68 135 -30 66 -29 128 rrcurveto
            48 -43 -138 59 -86 hhcurveto
            -43 -20 -16 -17 -4 1 -5 2 -4 hvcurveto
            23 -7 19 -9 18 -12 6 2 rcurveline
            6 13 14 7 12 6 rrcurveto
            5 10 23 8 11 hhcurveto
            42 -19 24 -45 19 -41 170 -364 rcurveline
            -26 vlineto
            -88 -7 -89 35 callgsubr
            return
          </CharString>
          <CharString index="17">
            201 33 rmoveto
            -4 27 -5 101 96 vvcurveto
            137 1 29 6 57 14 callgsubr
            70 31 -33 -67 -75 -43 -33 -75 hvcurveto
            -10 hlineto
            -2 -29 rlineto
            16 17 -1 -3 16 hvcurveto
            55 -106 15 -58 -32 vvcurveto
            -24 -6 -12 -7 -7 vhcurveto
            4 -16 rlineto
            3 18 24 2 26 hhcurveto
            40 39 -2 -5 30 hvcurveto
            4 27 -18 5 -28 6 -18 3 rlinecurve
            -112 229 rlineto
            63 23 44 52 65 vvcurveto
            99 -70 24 -110 vhcurveto
            -49 -107 -7 -74 hhcurveto
            -20 vlineto
            23 18 -5 -8 24 hvcurveto
            4 -27 5 -91 -108 vvcurveto
            -97 -6 -100 -4 -30 vhcurveto
            -39 callgsubr
            rrcurveto
            return
          </CharString>
          <CharString index="18">
            42 61 -31 42 hhcurveto
            42 18 31 30 31 34 -18 11 rcurveline
            -20 -17 -22 -4 -26 hhcurveto
            -41 -42 12 19 -36 hvcurveto
            -51 -15 -43 -30 -34 -37 rrcurveto
            return
          </CharString>
          <CharString index="19">
            5 32 50 -85 callsubr
            return
          </CharString>
          <CharString index="20">
            vvcurveto
            139 -72 84 -139 vhcurveto
            -141 -36 -90 -141 -144 vvcurveto
            204 260 rmoveto
            117 36 -107 -117 -55 -11 -67 -29 -51 hvcurveto
            return
          </CharString>
          <CharString index="21">
            58 callgsubr
            -82 callgsubr
            hintmask 1010100010000000
            -83 callgsubr
            hintmask 0000011000000000
            return
          </CharString>
          <CharString index="22">
            94 callgsubr
            44 -2 -5 -30 callgsubr
            return
          </CharString>
          <CharString index="23">
            30 64 -18 callgsubr
            -30 7 -22 -27 callsubr
            75 7 100 97 callsubr
            16 3 31 9 15 -11 callgsubr
            return
          </CharString>
          <CharString index="24">
            -88 callgsubr
            27 26 64 5 63 callgsubr
            6 83 callsubr
            -121 return
          </CharString>
          <CharString index="25">
            17 callgsubr
            hintmask 01100011
            60 callgsubr
            hintmask 10100011
            -84 callgsubr
            hintmask 01100011
            42 callsubr
            hintmask 10100011
            -50 callgsubr
            hintmask 10010011
            -77 callgsubr
            return
          </CharString>
          <CharString index="26">
            -72 callgsubr
            2 -24 6 -83 -119 vvcurveto
            -69 -2 -59 -2 -40 vhcurveto
            -25 -27 -38 -12 -36 hhcurveto
            -98 -17 70 98 56 5 103 7 56 hvcurveto
            return
          </CharString>
          <CharString index="27">
            -20 hstemhm
            89 83 callgsubr
            hintmask 10010011
            16 callgsubr
            hintmask 10100011
            -81 callsubr
            hintmask 10010011
            8 callgsubr
            hintmask 10100011
            45 callgsubr
            hintmask 10010011
            -80 callgsubr
            hintmask 01010011
            -64 callgsubr
            hintmask 00001100
            return
          </CharString>
          <CharString index="28">
            vhcurveto
            -52 callgsubr
            -5 -37 -44 -2 -37 hhcurveto
            return
          </CharString>
          <CharString index="29">
            rmoveto
            81 4 97 4 27 -79 callsubr
            return
          </CharString>
          <CharString index="30">
            -64 -62 -93 callsubr
            return
          </CharString>
          <CharString index="31">
            rmoveto
            -32 callgsubr
            hintmask 10100110
            -81 callsubr
            hintmask 10010110
            8 callgsubr
            hintmask 10100110
            45 callgsubr
            hintmask 10010110
            -80 callgsubr
            hintmask 01010110
            -64 callgsubr
            return
          </CharString>
          <CharString index="32">
            rmoveto
            -14 -3 -22 -7 -14 -6 2 -17 rcurveline
            5 28 30 2 28 hhcurveto
            29 27 -2 -4 27 hvcurveto
            3 17 -13 6 -19 7 -13 4 rlinecurve
            -3 23 -3 63 41 vvcurveto
            67 vlineto
            43 5 83 6 44 vhcurveto
            -3 2 rlineto
            -8 -12 -1 -1 -6 hvcurveto
            -31 -32 -37 -16 -42 -12 rrcurveto
            -1 -3 -1 -10 -4 vvcurveto
            2 -2 rlineto
            60 hlineto
            2 -31 1 -28 -32 vvcurveto
            -67 vlineto
            -41 -5 -62 -3 -26 vhcurveto
            return
          </CharString>
          <CharString index="33">
            79 30 91 89 84 91 -226 51 70 vvcurveto
            46 44 22 46 26 30 -6 -10 22 vhcurveto
            3 -25 2 -20 -25 vvcurveto
            25 hlineto
            3 43 13 41 31 31 rrcurveto
            18 vlineto
            11 -44 -44 4 -46 hhcurveto
            -72 -23 -99 -82 -75 -92 227 -53 -70 vvcurveto
            -54 -41 -27 -58 -31 -31 7 12 -29 vhcurveto
            -1 vlineto
            -2 22 -1 24 23 vvcurveto
            -25 hlineto
            -4 -60 -17 -46 -41 -45 rrcurveto
            return
          </CharString>
          <CharString index="34">
            -53 callgsubr
            8 -15 19 -23 13 -12 return
          </CharString>
          <CharString index="35">
            rmoveto
            12 callgsubr
          </CharString>
          <CharString index="36">
            -59 -62 4 7 -60 hvcurveto
            146 -296 rmoveto
            -26 -27 2 4 -26 hvcurveto
            0 4 18 9 34 vhcurveto
            46 187 rlineto
            return
          </CharString>
          <CharString index="37">
            -23 -3 -51 -11 -22 -7 return
          </CharString>
          <CharString index="38">
            -20 hstemhm
            45 86 hintmask 11100100
            -98 callgsubr
            hintmask 00011000
            return
          </CharString>
          <CharString index="39">
            -40 -64 2 6 -40 hvcurveto
            -4 -25 22 -7 51 -11 23 -3 rlinecurve
            return
          </CharString>
          <CharString index="40">
            rmoveto
            -1 14 -15 34 -9 11 -11 2 -20 0 -12 -1 -30 -54 -51 -62 -51 -35 11 -18 rcurveline
            return
          </CharString>
          <CharString index="41">
            rmoveto
            134 -90 13 17 -58 49 -43 53 -36 66 rlinecurve
            -20 hlineto
            -36 -66 -43 -53 -58 -49 13 -17 rcurveline
            endchar
          </CharString>
          <CharString index="42">
            1 17 19 1 17 hhcurveto
            16 15 -1 -1 17 hvcurveto
            4 -27 4 -88 63 callsubr
            -5 -28 -33 -1 -28 hhcurveto
            return
          </CharString>
          <CharString index="43">
            -32 -50 3 98 callgsubr
            -4 -26 19 -6 return
          </CharString>
          <CharString index="44">
            359 593 rmoveto
            -273 -450 -30 -49 -51 -72 -42 -39 rlinecurve
            22 -18 rlineto
            26 27 28 15 37 hhcurveto
            93 80 -82 -117 105 25 callgsubr
            20 callgsubr
            -75 -102 156 69 -154 vhcurveto
            266 459 19 33 30 46 42 39 rlinecurve
            -22 18 rlineto
            -31 -26 -40 -7 -40 hhcurveto
            -69 -54 22 21 -57 hvcurveto
            -73 -20 -148 -74 -75 vvcurveto
            -11 5 -12 13 -5 vhcurveto
            17 11 22 10 21 6 2 8 rcurveline
            -2 7 -1 8 8 vvcurveto
            44 19 22 45 60 82 -18 -13 60 vhcurveto
            11 3 13 5 10 5 rrcurveto
            return
          </CharString>
          <CharString index="45">
            2 callgsubr
            hintmask 10001010
            -23 callgsubr
            hintmask 01000110
            -45 callgsubr
            hintmask 10000110
            -60 callsubr
            return
          </CharString>
          <CharString index="46">
            rmoveto
            -53 -16 -81 -57 -53 vvcurveto
            -13 9 -10 14 -1 vhcurveto
            13 12 10 11 17 10 rrcurveto
            6 vlineto
            -6 4 -2 6 11 vvcurveto
            7 2 13 3 7 vhcurveto
            8 17 16 3 18 hhcurveto
            40 30 -19 -39 -99 -152 -94 -47 -96 hvcurveto
            17 -8 9 12 6 7 11 11 rlinecurve
            78 87 -14 -16 77 hvcurveto
            10 7 rlineto
            -4 18 -2 15 15 vvcurveto
            22 3 19 6 20 vhcurveto
            -17 6 -6 -17 -6 -15 -8 -15 rlinecurve
            -45 6 -60 4 -45 -2 rrcurveto
            -8 -2 -11 -5 0 vvcurveto
            -2 3 67 58 68 68 55 72 rlinecurve
            88 -40 42 -88 vhcurveto
            endchar
          </CharString>
          <CharString index="47">
            61 -16 62 -11 63 -2 rrcurveto
            65 23 104 112 68 -79 callgsubr
            -29 -30 -71 -3 -50 hhcurveto
            -17 -30 1 1 -17 hvcurveto
            -4 45 -4 101 154 vvcurveto
            return
          </CharString>
          <CharString index="48">
            rmoveto
            4 -30 1 -33 -30 vvcurveto
            26 hlineto
            10 76 23 57 48 58 -21 14 rcurveline
            -13 -12 -12 -11 -16 -8 rrcurveto
            return
          </CharString>
          <CharString index="49">
            -31 -64 5 6 -31 hvcurveto
            -3 -26 24 -8 17 -5 24 91 callsubr
            -102 1 callgsubr
            -107 -6 -71 -3 -26 97 callgsubr
            -24 -6 -19 -23 callsubr
            -88 callsubr
            -29 34 callsubr
            -29 3 rlinecurve
            return
          </CharString>
          <CharString index="50">
            -4 24 -3 18 23 vvcurveto
            21 3 24 6 20 vhcurveto
            -21 3 rlineto
            -28 -14 return
          </CharString>
          <CharString index="51">
            13 -26 callsubr
            return
          </CharString>
          <CharString index="52">
            -31 -34 -47 -15 -45 hhcurveto
            -125 -19 92 118 72 6 129 8 72 hvcurveto
            4 38 14 35 34 19 rrcurveto
            endchar
          </CharString>
          <CharString index="53">
            -74 callsubr
            hintmask 01111110
            53 callsubr
            hintmask 10111110
            -11 40 34 -4 44 hhcurveto
            return
          </CharString>
          <CharString index="54">
            -6 -30 -38 -5 -40 hhcurveto
            -25 -31 1 4 -21 hvcurveto
            -2 -17 rlineto
            47 -15 15 -94 -171 vvcurveto
            -122 vlineto
            -3 -2 rlineto
            -175 299 -50 59 3 callsubr
            -23 -38 -1 -22 hhcurveto
            return
          </CharString>
          <CharString index="55">
            -73 callsubr
            -2 -38 -28 -56 -26 -31 10 -10 rcurveline
            58 39 56 76 70 vvcurveto
            return
          </CharString>
          <CharString index="56">
            14 -51 -37 5 -52 hhcurveto
            -94 -25 -83 -77 -46 -82 rrcurveto
            -84 75 -43 84 -5 vhcurveto
            -4 vlineto
            return
          </CharString>
          <CharString index="57">
            26 callsubr
            46 -21 26 callgsubr
            hintmask 11011000
            -96 callsubr
            hintmask 00100000
            return
          </CharString>
          <CharString index="58">
            -218 -125 -21 667 -25 callsubr
            hintmask 10110000
            117 123 -60 callgsubr
            hintmask 11010000
            -72 callgsubr
            4 -27 4 -97 -81 vvcurveto
            endchar
          </CharString>
          <CharString index="59">
            269 58 rmoveto
            -116 -22 97 116 55 12 68 27 49 hvcurveto
            -99 callgsubr
            return
          </CharString>
          <CharString index="60">
            71 callgsubr
            hintmask 11001100
            -96 callsubr
            hintmask 00110000
            return
          </CharString>
          <CharString index="61">
            666 rmoveto
            -106 callgsubr
            return
          </CharString>
          <CharString index="62">
            -125 -55 62 -41 callsubr
            endchar
          </CharString>
          <CharString index="63">
            -25 -64 44 callsubr
            16 -5 29 -7 17 -2 rlinecurve
            18 -22 26 -42 103 -208 rrcurveto
            -21 vlineto
            -70 -5 -69 -4 0 callsubr
            -33 -6 -18 -23 callsubr
            return
          </CharString>
          <CharString index="64">
            10 3 -48 hvcurveto
            -106 callsubr
            return
          </CharString>
          <CharString index="65">
            -98 -88 callgsubr
            return
          </CharString>
          <CharString index="66">
            125 10 -7 callsubr
            49 -10 -18 31 hvcurveto
            return
          </CharString>
          <CharString index="67">
            -14 callgsubr
            70 3 50 hhcurveto
            9 -22 8 -23 7 -22 rrcurveto
            118 -368 15 -82 -38 39 callsubr
            return
          </CharString>
          <CharString index="68">
            90 119 hvcurveto
            43 vlineto
            4 27 19 1 32 hhcurveto
            35 -32 callsubr
            -39 -18 -48 -4 -43 hhcurveto
            -27 -23 1 6 -27 hvcurveto
            3 69 4 63 6 52 3 24 3 18 6 18 rrcurveto
            return
          </CharString>
          <CharString index="69">
            66 callgsubr
            -22 7 -51 11 -23 3 rlinecurve
            return
          </CharString>
          <CharString index="70">
            10 -17 30 -24 14 -9 17 9 28 24 9 17 -8 15 -19 23 -13 12 2 38 28 56 26 31 -10 10 rcurveline
            -58 -39 -56 -76 -70 vvcurveto
            return
          </CharString>
          <CharString index="71">
            414 9 rmoveto
            -20 39 -6 43 -2 43 rrcurveto
            -25 hlineto
            -23 -5 -35 -9 -22 vhcurveto
            -12 -25 -35 -5 -28 hhcurveto
            -17 -24 1 3 -18 hvcurveto
            -4 return
          </CharString>
          <CharString index="72">
            -56 callsubr
            200 36 247 38 11 -20 return
          </CharString>
          <CharString index="73">
            -6 -39 -52 -2 -39 hhcurveto
            -25 -33 2 2 -25 hvcurveto
            -4 -14 rlineto
            14 -7 6 -10 -15 vvcurveto
            return
          </CharString>
          <CharString index="74">
            -56 callsubr
            521 30 callsubr
            return
          </CharString>
          <CharString index="75">
            23 -1 -2 25 hvcurveto
            2 -20 11 -51 7 -18 23 4 rcurveline
            -4 29 -2 29 29 vvcurveto
            26 2 26 7 25 vhcurveto
            -20 4 rlineto
            return
          </CharString>
          <CharString index="76">
            33 callsubr
            257 37 389 -20 return
          </CharString>
          <CharString index="77">
            -88 callsubr
            -27 7 -30 -17 callgsubr
            27 -5 77 122 vvcurveto
            4 42 34 2 43 hhcurveto
            42 31 -2 -4 43 hvcurveto
            -1 -118 -6 -80 -2 -28 -39 callgsubr
            rrcurveto
            return
          </CharString>
          <CharString index="78">
            -1 -15 71 280 37 -23 23 100 -20 141 72 12 -20 return
          </CharString>
          <CharString index="79">
            vlineto
            -111 -6 -69 return
          </CharString>
          <CharString index="80">
            -9 callgsubr
            -7 85 47 callsubr
            return
          </CharString>
          <CharString index="81">
            -21 29 -21 return
          </CharString>
          <CharString index="82">
            -20 28 4 callgsubr
            75 return
          </CharString>
          <CharString index="83">
            132 121 vvcurveto
            165 2 41 6 67 vhcurveto
            2 return
          </CharString>
          <CharString index="84">
            -6 4 -26 rcurveline
            return
          </CharString>
          <CharString index="85">
            -12 callsubr
            hintmask 10100000
            -89 callsubr
            endchar
          </CharString>
          <CharString index="86">
            -28 callsubr
            -4 -24 vhcurveto
            -20 -4 -26 -7 -18 -7 3 -25 rcurveline
            8 60 93 2 60 hhcurveto
            return
          </CharString>
          <CharString index="87">
            5 32 56 -85 callsubr
            -27 7 return
          </CharString>
          <CharString index="88">
            9 callsubr
            -33 -1 -26 hhcurveto
            return
          </CharString>
          <CharString index="89">
            94 callsubr
            -81 105 -166 vhcurveto
            return
          </CharString>
          <CharString index="90">
            5 -26 3 rlinecurve
            return
          </CharString>
          <CharString index="91">
            hvcurveto
            -18 -15 -24 -6 -23 hhcurveto
            -39 -62 18 23 -32 hvcurveto
            59 callgsubr
            -3 -40 -13 -41 -27 -31 rrcurveto
            -13 vlineto
            -23 49 78 -16 54 hhcurveto
            71 25 83 76 28 70 rrcurveto
            return
          </CharString>
          <CharString index="92">
            15 -45 rmoveto
            56 -43 74 -20 70 -7 rrcurveto
            126 51 79 110 134 127 -285 100 108 vvcurveto
            51 61 28 52 32 41 -7 -13 28 vhcurveto
            4 -32 1 -29 -32 vvcurveto
            return
          </CharString>
          <CharString index="93">
            rmoveto
            -4 25 rlineto
            0 callgsubr
            return
          </CharString>
          <CharString index="94">
            -2 -3 14 hvcurveto
            4 17 rlineto
            return
          </CharString>
          <CharString index="95">
            rmoveto
            19 16 22 5 25 hhcurveto
            return
          </CharString>
          <CharString index="96">
            rmoveto
            2 -24 6 -79 1 -77 rrcurveto
            -6 -43 -31 -1 -42 hhcurveto
            -43 -34 2 6 -42 hvcurveto
            73 4 77 4 29 -79 callsubr
            return
          </CharString>
          <CharString index="97">
            -64 callsubr
            26 -6 18 73 callsubr
            -32 6 -97 -75 vvcurveto
            return
          </CharString>
          <CharString index="98">
            -26 -18 2 5 -25 hvcurveto
            3 54 3 44 5 41 2 18 3 15 5 14 rrcurveto
            4 18 25 0 18 hhcurveto
            27 35 2 callsubr
            return
          </CharString>
          <CharString index="99">
            -113 -117 34 callgsubr
            -9 -51 return
          </CharString>
          <CharString index="100">
            hvcurveto
            26 31 35 8 40 hhcurveto
            35 return
          </CharString>
          <CharString index="101">
            13 -21 29 27 callgsubr
            return
          </CharString>
          <CharString index="102">
            -14 34 66 -16 36 hhcurveto
            -15 503 rmoveto
            123 37 -112 -123 -62 -9 -60 -29 -55 hvcurveto
            -18 -21 -33 -9 -27 hhcurveto
            -31 -46 10 13 -28 hvcurveto
            -4 return
          </CharString>
          <CharString index="103">
            rmoveto
            30 2 7 64 12 85 27 70 rlinecurve
            -12 13 -18 1 -43 -10 -16 -8 rlinecurve
            return
          </CharString>
          <CharString index="104">
            268 -12 rmoveto
            135 39 100 142 140 vvcurveto
            148 -89 69 -148 vhcurveto
            -49 -108 24 callgsubr
            return
          </CharString>
          <CharString index="105">
            132 -21 328 -20 hstem
            111 283 rmoveto
            107 143 -19 13 -49 -58 -63 -56 -66 -36 rlinecurve
            -20 vlineto
            70 -42 55 -55 53 -61 20 14 rcurveline
            return
          </CharString>
          <CharString index="106">
            436 rmoveto
            -98 callsubr
            -9 17 -28 24 -17 9 -14 -9 -30 -24 -10 -17 rrcurveto
            67 -135 rmoveto
            -26 -2 return
          </CharString>
          <CharString index="107">
            -24 97 callgsubr
            return
          </CharString>
          <CharString index="108">
            -81 callgsubr
            endchar
          </CharString>
          <CharString index="109">
            -5 -12 25 hvcurveto
            -19 3 -42 4 -19 37 callsubr
            return
          </CharString>
          <CharString index="110">
            25 vvcurveto
            11 16 9 11 3 vhcurveto
            -2 17 rlineto
            -6 return
          </CharString>
          <CharString index="111">
            165 35 -119 -165 -81 -12 -77 -39 -71 hvcurveto
            -23 -26 -38 -11 -34 hhcurveto
            -39 -58 10 18 58 callsubr
            return
          </CharString>
          <CharString index="112">
            rlinecurve
            10 -20 7 -22 7 -22 rrcurveto
            94 -294 11 -61 -30 24 callsubr
            39 1 29 hhcurveto
            return
          </CharString>
          <CharString index="113">
            389 vmoveto
            12 callgsubr
          </CharString>
          <CharString index="114">
            -66 -12 70 194 36 183 62 return
          </CharString>
          <CharString index="115">
            69 -38 38 76 callsubr
            return
          </CharString>
          <CharString index="116">
            -6 6 rlineto
            -2 -26 return
          </CharString>
          <CharString index="117">
            3 32 hhcurveto
            return
          </CharString>
          <CharString index="118">
            125 rmoveto
            20 -14 53 61 55 55 70 42 rlinecurve
            20 vlineto
            -66 36 -63 56 -49 58 -17 -13 rcurveline
            105 -143 rlineto
            return
          </CharString>
          <CharString index="119">
            rmoveto
            -13 -17 58 -49 43 -53 36 -66 rlinecurve
            20 hlineto
            36 66 43 53 58 49 -13 17 rcurveline
            -134 -90 rlineto
            endchar
          </CharString>
          <CharString index="120">
            hstemhm
            147 196 0 75 return
          </CharString>
          <CharString index="121">
            hstemhm
            117 return
          </CharString>
          <CharString index="122">
            1 71 vhcurveto
            -5 1 -14 -10 -21 -10 -17 -7 rlinecurve
            3 -106 return
          </CharString>
          <CharString index="123">
            218 616 rmoveto
            -33 callgsubr
            return
          </CharString>
          <CharString index="124">
            -7 -59 -80 -4 -59 hhcurveto
            return
          </CharString>
          <CharString index="125">
            95 callsubr
            77 return
          </CharString>
          <CharString index="126">
            -20 hstem
            160 46 -73 callsubr
            return
          </CharString>
          <CharString index="127">
            -21 146 -20 return
          </CharString>
          <CharString index="128">
            9 callgsubr
            hstemhm
            return
          </CharString>
          <CharString index="129">
            38 99 24 65 21 48 rlinecurve
            -4 3 -12 -4 -14 -2 -12 59 callsubr
            return
          </CharString>
          <CharString index="130">
            489 rmoveto
            22 3 35 43 callsubr
            return
          </CharString>
          <CharString index="131">
            vvcurveto
            -10 -15 -13 -11 -3 vhcurveto
            3 -16 rlineto
            3 22 return
          </CharString>
          <CharString index="132">
            rrcurveto
            6 15 17 3 16 28 callgsubr
            11 -61 return
          </CharString>
          <CharString index="133">
            12 -12 61 423 61 return
          </CharString>
          <CharString index="134">
            88 -15 72 537 72 return
          </CharString>
          <CharString index="135">
            4 -26 rlineto
            return
          </CharString>
          <CharString index="136">
            6 25 31 2 24 hhcurveto
            33 25 -1 -5 33 hvcurveto
            3 18 -11 3 -25 8 -9 5 rlinecurve
            return
          </CharString>
          <CharString index="137">
            -20 28 -20 return
          </CharString>
          <CharString index="138">
            4 22 32 1 22 hhcurveto
            34 43 -6 -15 31 hvcurveto
            -24 4 -61 5 -24 37 callsubr
            return
          </CharString>
          <CharString index="139">
            46 callgsubr
            hstemhm
            return
          </CharString>
          <CharString index="140">
            85 -56 callsubr
            return
          </CharString>
          <CharString index="141">
            7 -30 5 return
          </CharString>
          <CharString index="142">
            2 -22 0 -17 -22 vvcurveto
            22 hlineto
            3 42 13 30 27 33 rrcurveto
            14 vlineto
            12 -45 return
          </CharString>
          <CharString index="143">
            -4 -29 hhcurveto
            -25 -26 1 4 -24 hvcurveto
            -4 -17 rlineto
            30 -16 11 -45 -33 vvcurveto
            -68 return
          </CharString>
          <CharString index="144">
            vhcurveto
            25 hlineto
            return
          </CharString>
          <CharString index="145">
            19 45 25 callsubr
            -83 8 -62 hhcurveto
            return
          </CharString>
          <CharString index="146">
            vvcurveto
            -14 -21 -13 -13 -4 vhcurveto
            4 -14 rlineto
            return
          </CharString>
          <CharString index="147">
            10 72 callsubr
            0 callgsubr
            return
          </CharString>
          <CharString index="148">
            67 callgsubr
            181 -20 67 -26 callsubr
            return
          </CharString>
          <CharString index="149">
            3 23 31 1 32 hhcurveto
            return
          </CharString>
          <CharString index="150">
            7 22 5 72 callsubr
            return
          </CharString>
          <CharString index="151">
            3 5 -25 hvcurveto
            -4 -26 return
          </CharString>
          <CharString index="152">
            37 callsubr
            4 return
          </CharString>
          <CharString index="153">
            23 3 51 11 return
          </CharString>
          <CharString index="154">
            136 vvcurveto
            return
          </CharString>
          <CharString index="155">
            3 21 hhcurveto
            74 29 -39 -72 -81 -42 -33 -81 hvcurveto
            -9 hlineto
            -4 -33 rlineto
            return
          </CharString>
          <CharString index="156">
            5 -8 -7 2 -7 hhcurveto
            -52 -67 -93 -123 -17 2 -26 2 -14 hvcurveto
            return
          </CharString>
          <CharString index="157">
            -5 -17 rlineto
            10 -7 5 -12 -14 vvcurveto
            -34 -13 -41 -150 -159 vhcurveto
            return
          </CharString>
          <CharString index="158">
            452 76 callgsubr
            return
          </CharString>
          <CharString index="159">
            87 callsubr
            -30 7 -50 9 -30 3 rlinecurve
            -5 return
          </CharString>
          <CharString index="160">
            18 -13 11 10 9 7 13 6 rlinecurve
            return
          </CharString>
          <CharString index="161">
            -21 185 -20 return
          </CharString>
          <CharString index="162">
            vlineto
            -62 1 -62 3 -61 3 -9 -51 rcurveline
            8 -7 rlineto
            186 return
          </CharString>
          <CharString index="163">
            -49 -94 -21 82 182 0 79 253 -20 133 72 return
          </CharString>
          <CharString index="164">
            rmoveto
            -107 20 63 -55 61 hhcurveto
            46 75 52 129 20 hvcurveto
            return
          </CharString>
          <CharString index="165">
            -35 hvcurveto
            -4 70 -1 92 78 vvcurveto
            return
          </CharString>
          <CharString index="166">
            -1 rlinecurve
            -26 -80 -22 -63 -30 -78 return
          </CharString>
          <CharString index="167">
            -5 -30 -64 -3 -30 hhcurveto
            return
          </CharString>
          <CharString index="168">
            67 callgsubr
            926 -20 return
          </CharString>
          <CharString index="169">
            9 callgsubr
            hstem
            return
          </CharString>
          <CharString index="170">
            -124 vvcurveto
            return
          </CharString>
          <CharString index="171">
            hmoveto
            -101 callgsubr
            return
          </CharString>
          <CharString index="172">
            131 35 17 callgsubr
            return
          </CharString>
          <CharString index="173">
            3 rlinecurve
            -4 return
          </CharString>
          <CharString index="174">
            10 callgsubr
            103 80 275 77 hintmask 00001100
            return
          </CharString>
          <CharString index="175">
            -26 callsubr
            521 -25 callsubr
            return
          </CharString>
          <CharString index="176">
            21 callgsubr
            hintmask 00001100
            return
          </CharString>
          <CharString index="177">
            30 callsubr
            hstemhm
            128 77 return
          </CharString>
          <CharString index="178">
            14 callsubr
            52 288 49 return
          </CharString>
          <CharString index="179">
            -4 25 rcurveline
            return
          </CharString>
          <CharString index="180">
            -3 rlinecurve
            4 return
          </CharString>
          <CharString index="181">
            192 -6 callsubr
            return
          </CharString>
          <CharString index="182">
            48 callgsubr
            hintmask 01110010
            return
          </CharString>
          <CharString index="183">
            31 -20 hstemhm
            return
          </CharString>
          <CharString index="184">
            35 111 35 hstem
            0 47 99 47 vstem
            return
          </CharString>
          <CharString index="185">
            47 8 -20 hstemhm
            126 77 286 89 return
          </CharString>
          <CharString index="186">
            hhcurveto
            76 26 58 53 49 65 -14 13 rcurveline
            return
          </CharString>
          <CharString index="187">
            42 9 -20 hstemhm
            hintmask 10000000
            return
          </CharString>
          <CharString index="188">
            -2 -6 40 66 callgsubr
            return
          </CharString>
          <CharString index="189">
            50 53 -3 -8 47 hvcurveto
            return
          </CharString>
          <CharString index="190">
            -106 63 callsubr
            return
          </CharString>
          <CharString index="191">
            3 49 8 37 34 36 -5 20 rcurveline
            return
          </CharString>
          <CharString index="192">
            -188 -187 -21 912 -20 hstem
            return
          </CharString>
          <CharString index="193">
            hlineto
            10 -7 46 9 rlineto
            -5 53 -4 return
          </CharString>
          <CharString index="194">
            43 callgsubr
            3 24 return
          </CharString>
          <CharString index="195">
            -20 hstem
            252 47 vstem
            501 return
          </CharString>
          <CharString index="196">
            35 hstemhm
            110 75 228 90 return
          </CharString>
          <CharString index="197">
            -58 -15 68 -64 -21 return
          </CharString>
          <CharString index="198">
            73 callsubr
            -29 6 return
          </CharString>
          <CharString index="199">
            3 rlinecurve
            -6 34 -7 return
          </CharString>
          <CharString index="200">
            -107 0 37 -27 -21 return
          </CharString>
          <CharString index="201">
            vvcurveto
            174 return
          </CharString>
          <CharString index="202">
            hstemhm
            130 return
          </CharString>
          <CharString index="203">
            20 -3 rlinecurve
            return
          </CharString>
          <CharString index="204">
            4 30 vhcurveto
            return
          </CharString>
          <CharString index="205">
            vvcurveto
            -165 return
          </CharString>
        <CharString name=".notdef">
          -334 endchar
        </CharString>
        <CharString name=".null">
          -514 endchar
        </CharString>
        <CharString name="A">
          -31 callsubr
          hstemhm
          392 77 hintmask 10111000
          -34 callgsubr
          hintmask 01111000
          -94 callsubr
          hintmask 10111000
          48 callgsubr
          hintmask 01111000
          -56 callgsubr
          hintmask 10111000
          -102 callsubr
          endchar
        </CharString>
        <CharString name="AE">
          230 -15 79 -43 -21 321 37 126 -20 150 37 76 callsubr
          352 82 hintmask 01111110
          468 651 rmoveto
          -80 -115 13 18 -80 -103 callgsubr
          -208 -576 -37 callgsubr
          -49 callgsubr
          -31 18 -7 28 35 vvcurveto
          45 25 90 13 43 vhcurveto
          14 46 rlineto
          5 21 34 1 21 hhcurveto
          21 30 -2 -4 21 hvcurveto
          -1 -63 rlineto
          hintmask 10111110
          -157 -2 42 -110 157 79 callsubr
          -42 -41 -50 -36 -57 hhcurveto
          -119 -17 -39 callsubr
          31 callsubr
          4 58 14 58 41 42 -4 20 rcurveline
          -7 -83 -119 -4 -63 hhcurveto
          -173 -40 rmoveto
          2 11 14 1 11 hhcurveto
          9 14 -1 -2 9 hvcurveto
          3 -16 0 -18 -19 vvcurveto
          -27 -7 -77 -4 -89 vhcurveto
          -6 -21 -30 -1 -21 hhcurveto
          -21 -20 1 5 -19 hvcurveto
          endchar
        </CharString>
        <CharString name="Aacute">
          -31 callsubr
          80 10 callgsubr
          392 77 hintmask 00001100
          529 -76 callgsubr
          hintmask 10110010
          -180 -56 -105 callgsubr
        </CharString>
        <CharString name="Acircumflex">
          -31 callsubr
          73 32 callsubr
          392 77 hintmask 00001100
          509 -70 callgsubr
          hintmask 10110010
          -205 -124 -105 callgsubr
        </CharString>
        <CharString name="Adieresis">
          -31 callsubr
          100 21 callsubr
          392 77 hintmask 00001100
          310 -85 callgsubr
          hintmask 10110010
          -352 -137 -105 callgsubr
        </CharString>
        <CharString name="Agrave">
          -31 callsubr
          89 10 callgsubr
          392 77 hintmask 00001100
          370 -59 callgsubr
          hintmask 10110010
          -21 -140 -105 callgsubr
        </CharString>
        <CharString name="Aring">
          -31 callsubr
          41 35 111 35 hstemhm
          243 47 99 47 -44 77 hintmask 1011000010000000
          -34 callgsubr
          hintmask 0111000010000000
          -94 callsubr
          hintmask 1011000010000000
          48 callgsubr
          hintmask 0111000010000000
          -56 callgsubr
          hintmask 1011000010000000
          -102 callsubr
          hintmask 0000111100000000
          -47 483 rmoveto
          -75 callgsubr
        </CharString>
        <CharString name="Atilde">
          -31 callsubr
          74 8 callsubr
          392 77 hintmask 00000110
          201 744 -12 callsubr
          hintmask 00001010
          -89 callsubr
          hintmask 10110001
          -40 -89 rmoveto
          -106 callgsubr
          -158 -560 -37 callgsubr
          hintmask 01110001
          -94 callsubr
          hintmask 10110001
          48 callgsubr
          hintmask 01110001
          -56 callgsubr
          hintmask 10110001
          -102 callsubr
          endchar
        </CharString>
        <CharString name="B">
          62 -1 -21 28 -21 360 23 0 233 0 50 8 -20 hstemhm
          125 77 204 94 -64 64 -64 92 hintmask 1010101100000000
          299 651 rmoveto
          hintmask 1001011100000000
          -74 -46 callgsubr
          rrcurveto
          1 -23 7 -115 -135 39 callgsubr
          hintmask 0110101001000000
          -19 42 65 -19 39 hhcurveto
          109 29 128 110 112 vvcurveto
          91 -71 41 -91 vhcurveto
          4 vlineto
          hintmask 1010101010000000
          69 29 65 64 74 vvcurveto
          106 -95 6 -106 vhcurveto
          -53 -306 rmoveto
          115 75 -39 -115 -33 -9 -47 -14 -30 hvcurveto
          -16 -23 -37 -8 -28 hhcurveto
          -39 -44 9 19 58 callsubr
          174 3 36 5 63 vhcurveto
          2 15 28 73 callgsubr
          hintmask 1010101100000000
          82 56 -10 -82 -40 -10 -37 -26 -29 hvcurveto
          -20 -31 -40 -1 -36 hhcurveto
          -12 hlineto
          endchar
        </CharString>
        <CharString name="C">
          -16 -115 81 509 -20 139 72 hstem
          42 89 vstem
          305 -34 rmoveto
          -153 -21 171 154 85 13 103 38 77 hvcurveto
          28 30 35 10 41 hhcurveto
          34 48 -11 -18 33 hvcurveto
          -31 3 -28 6 -31 37 callsubr
          5 50 9 46 38 callsubr
          -197 -57 -74 -199 -205 vvcurveto
          -178 63 -142 178 vhcurveto
          85 29 69 59 44 68 -14 14 rcurveline
          -47 -38 -64 -42 -60 hhcurveto
          endchar
        </CharString>
        <CharString name="CR">
          -334 endchar
        </CharString>
        <CharString name="Ccedilla">
          -16 67 callgsubr
          37 -20 204 -21 493 -20 138 70 hstemhm
          42 89 167 61 hintmask 01111110
          215 -97 -26 callgsubr
          hintmask 10111110
          -27 callgsubr
          12 32 rlineto
          -1 6 6 0 7 hhcurveto
          78 26 69 53 51 65 -14 13 rcurveline
          -41 -43 -62 -37 -58 hhcurveto
          -143 -30 132 143 72 13 84 38 65 hvcurveto
          26 31 37 10 40 hhcurveto
          34 49 -9 -16 30 hvcurveto
          -27 3 -39 6 -27 37 callsubr
          5 49 9 44 38 callsubr
          -170 -47 -101 -176 -178 vvcurveto
          -149 62 -108 134 -19 vhcurveto
          -29 -82 rlineto
          endchar
        </CharString>
        <CharString name="D">
          106 -15 72 -58 -21 626 78 callsubr
          hintmask 10101100
          31 callgsubr
          hintmask 01011100
          -80 -46 callgsubr
          rrcurveto
          4 -43 5 -106 -124 39 callgsubr
          hintmask 10101100
          -21 49 59 -17 53 hhcurveto
          -18 619 rmoveto
          4 callsubr
          174 2 27 7 73 vhcurveto
          4 25 26 1 26 hhcurveto
          endchar
        </CharString>
        <CharString name="E">
          -29 callsubr
          hstemhm
          50 94 -63 63 -63 92 hintmask 1101011000000000
          394 566 -59 callsubr
          hintmask 1011100100000000
          -51 callsubr
          hintmask 1101101000000000
          -89 callgsubr
          hintmask 1101100010000000
          -45 callsubr
        </CharString>
        <CharString name="Eacute">
          -29 callsubr
          85 10 callgsubr
          50 94 -63 63 -63 92 hintmask 0000001100000000
          477 -76 callgsubr
          hintmask 1101010010000000
          123 -156 -99 callsubr
        </CharString>
        <CharString name="Ecircumflex">
          -29 callsubr
          78 32 callsubr
          50 94 -63 63 -63 92 hintmask 0000001100000000
          464 -70 callgsubr
          hintmask 1101010010000000
          91 -224 -99 callsubr
        </CharString>
        <CharString name="Edieresis">
          -29 callsubr
          105 21 callsubr
          50 94 -63 63 -63 92 hintmask 0000001100000000
          266 -85 callgsubr
          hintmask 1101010010000000
          -57 -237 -99 callsubr
        </CharString>
        <CharString name="Egrave">
          -29 callsubr
          94 10 callgsubr
          51 94 -63 63 -63 92 hintmask 0000001100000000
          335 -59 callgsubr
          hintmask 1101010010000000
          266 -240 -99 callsubr
        </CharString>
        <CharString name="Eth">
          106 -15 72 -58 -21 349 25 252 78 callsubr
          hintmask 10110110
          31 callgsubr
          hintmask 01101110
          -80 -46 callgsubr
          3 -40 5 -93 1 -111 -103 -3 -13 callgsubr
          23 3 43 4 41 2 rrcurveto
          -117 -2 -125 -22 -99 42 callgsubr
          hintmask 10110110
          -21 49 59 -17 53 hhcurveto
          -72 341 rmoveto
          122 -19 callgsubr
          -61 -2 rcurveline
          143 2 31 7 68 vhcurveto
          4 25 26 1 26 hhcurveto
          4 callsubr
          endchar
        </CharString>
        <CharString name="Euro">
          -58 -16 73 155 29 51 29 152 65 hstem
          75 81 vstem
          256 211 rmoveto
          122 -19 callgsubr
          -131 -5 rcurveline
          -1 11 1 10 11 vvcurveto
          17 vlineto
          102 3 122 -19 callgsubr
          -128 -5 rcurveline
          6 44 13 47 17 36 rrcurveto
          21 24 21 6 32 hhcurveto
          36 24 -6 -8 24 hvcurveto
          3 -24 0 -15 -25 vvcurveto
          22 hlineto
          4 46 10 30 29 37 rrcurveto
          14 vlineto
          13 -49 -32 3 -50 hhcurveto
          -102 -30 -71 -88 -29 -103 -53 -2 -13 callgsubr
          12 2 18 2 20 1 -3 -16 -3 -16 -1 -16 -39 -1 -13 callgsubr
          43 5 rlineto
          -126 2 53 -94 127 hhcurveto
          63 26 56 47 37 53 -10 10 rcurveline
          -32 -35 -47 -31 -46 hhcurveto
          -89 -24 67 84 -6 hvcurveto
          endchar
        </CharString>
        <CharString name="F">
          -26 -56 callsubr
          321 37 126 -20 121 60 -47 68 10 21 callgsubr
          hintmask 10111011
          365 645 rmoveto
          hintmask 10110101
          -95 -66 15 6 -145 -103 callgsubr
          2 19 callgsubr
          hintmask 01111011
          -56 callgsubr
          hintmask 10111011
          52 callsubr
          33 -7 93 -1 155 rrcurveto
          4 32 20 1 32 hhcurveto
          25 -32 callsubr
          -35 -17 -34 -8 -48 hhcurveto
          -32 -20 2 6 -32 hvcurveto
          79 3 102 5 46 vhcurveto
          -4 45 38 -4 38 hhcurveto
          24 26 1 7 23 hvcurveto
          -29 4 -56 5 -24 37 callsubr
          hintmask 10110101
          4 61 16 67 30 54 rrcurveto
          hintmask 10111011
          -19 10 rlineto
          -24 -23 -32 -7 -54 hhcurveto
          endchar
        </CharString>
        <CharString name="G">
          43 -200 65 120 81 409 -20 139 72 hstemhm
          42 89 274 35 -35 64 hintmask 11111100
          305 66 rmoveto
          -140 -34 133 140 72 13 84 38 65 -7 callsubr
          52 -9 -17 31 hvcurveto
          -27 3 -39 6 -27 45 callsubr
          51 9 43 20 47 25 callsubr
          -86 8 -62 hhcurveto
          -170 -47 -101 -176 -178 98 callsubr
          76 -115 165 vhcurveto
          43 15 43 23 36 28 rrcurveto
          -53 -9 -84 -32 -43 vhcurveto
          -5 -9 -12 -1 -11 hhcurveto
          -21 -21 4 13 -17 hvcurveto
          -7 -1 -12 -17 -19 -20 -18 -14 rlinecurve
          -19 16 -11 19 vhcurveto
          hintmask 11111010
          77 104 84 67 36 hvcurveto
          1 112 7 101 12 112 10 14 12 11 14 11 -9 18 rcurveline
          -35 -52 -50 -14 -59 hhcurveto
          -14 -15 1 2 -15 hvcurveto
          -3 -21 29 -5 35 -7 27 -8 rlinecurve
          2 -22 2 -23 -22 vvcurveto
          -82 vlineto
          -16 -29 -36 -12 -33 hhcurveto
          endchar
        </CharString>
        <CharString name="H">
          194 -56 callsubr
          335 37 224 55 callgsubr
          194 21 callgsubr
          294 77 hintmask 10110111
          578 652 rmoveto
          45 2 51 30 35 vhcurveto
          5 10 25 2 11 hhcurveto
          13 16 -1 -9 10 hvcurveto
          7 1 11 18 14 16 17 16 rlinecurve
          16 -15 11 -16 -78 -120 -130 -75 -23 vhcurveto
          5 -61 3 -84 1 -127 rrcurveto
          -7 -53 -39 -2 -53 hhcurveto
          -53 -43 3 7 -53 hvcurveto
          1 87 4 95 4 41 28 7 34 10 27 40 callsubr
          hintmask 10101111
          -77 callsubr
          1 hlineto
          5 -48 callgsubr
          hintmask 01110111
          -56 callgsubr
          hintmask 10110111
          -92 callgsubr
          34 -7 106 -1 153 rrcurveto
          5 53 43 2 53 hhcurveto
          53 39 -2 -5 53 hvcurveto
          -1 -153 -7 -106 -3 -31 -66 callgsubr
          hintmask 01110111
          6 46 52 2 46 hhcurveto
          hintmask 10110111
          -54 callgsubr
          endchar
        </CharString>
        <CharString name="I">
          -5 callgsubr
          95 callsubr
          77 hintmask 10011000
          16 callsubr
          hintmask 10101000
          -23 callgsubr
          hintmask 10011000
          -94 callgsubr
          hintmask 01011000
          -56 callgsubr
          hintmask 10011000
          1 callsubr
        </CharString>
        <CharString name="IJ">
          178 -159 -21 193 -26 callsubr
          651 -20 28 21 callgsubr
          260 77 hintmask 10001010
          456 616 rmoveto
          5 -34 6 -126 -101 vvcurveto
          -201 vlineto
          -135 -34 -93 -104 -87 vhcurveto
          17 -19 88 51 77 70 41 92 41 callgsubr
          94 8 127 5 37 vhcurveto
          46 callsubr
          93 callgsubr
          hintmask 10010010
          -6 -40 -64 -2 -40 hhcurveto
          hintmask 10001010
          -46 -64 3 5 -46 hvcurveto
          -3 -24 29 -7 51 -9 30 -3 rlinecurve
          hintmask 01001100
          -238 hmoveto
          -33 callgsubr
          hintmask 01010100
          -23 callgsubr
          hintmask 01001100
          -94 callgsubr
          hintmask 00101100
          -56 callgsubr
          hintmask 01001100
          1 callsubr
        </CharString>
        <CharString name="Iacute">
          -5 callgsubr
          104 -21 146 69 callsubr
          315 -76 callgsubr
          hintmask 10010010
          109 -106 rmoveto
          -97 callsubr
          endchar
        </CharString>
        <CharString name="Icircumflex">
          -5 callgsubr
          97 -21 170 69 callsubr
          335 -70 callgsubr
          hintmask 10010010
          44 -174 rmoveto
          -97 callsubr
          0 vmoveto
          -97 callsubr
          endchar
        </CharString>
        <CharString name="Idieresis">
          -5 callgsubr
          124 -21 111 69 callsubr
          135 -85 callgsubr
          hintmask 10010010
          -102 -187 rmoveto
          -97 callsubr
          endchar
        </CharString>
        <CharString name="Igrave">
          -5 callgsubr
          113 -21 146 69 callsubr
          229 -59 callgsubr
          hintmask 10010010
          195 -190 rmoveto
          -97 callsubr
          endchar
        </CharString>
        <CharString name="Itilde">
          -5 callgsubr
          105 8 callsubr
          130 77 hintmask 10010001
          16 callsubr
          hintmask 10100001
          -23 callgsubr
          hintmask 10010001
          -94 callgsubr
          hintmask 01010001
          -56 callgsubr
          hintmask 10010001
          -81 callgsubr
          hintmask 00000110
          -196 135 -12 callsubr
          hintmask 00001010
          -89 callsubr
          endchar
        </CharString>
        <CharString name="J">
          -160 -21 777 55 callgsubr
          18 callsubr
          hintmask 11010000
          308 632 -14 callsubr
          hintmask 10110000
          -51 callgsubr
        </CharString>
        <CharString name="Jcircumflex">
          -160 -21 777 55 callgsubr
          72 -21 170 21 callgsubr
          hintmask 00011000
          325 -70 callgsubr
          hintmask 11000100
          144 -158 -14 callsubr
          hintmask 10100100
          -51 callgsubr
        </CharString>
        <CharString name="K">
          92 -94 -21 136 27 callgsubr
          18 callsubr
          hintmask 11101000
          207 350 rmoveto
          106 5 108 4 41 vhcurveto
          28 7 34 10 27 40 callsubr
          hintmask 11011000
          -77 callsubr
          1 hlineto
          5 -48 callgsubr
          -56 callgsubr
          -92 callgsubr
          34 -6 74 -2 114 34 28 34 30 32 29 72 -145 29 -75 30 -132 rrcurveto
          -48 43 138 -59 86 hhcurveto
          43 20 16 17 4 -1 5 -2 4 hvcurveto
          -23 7 -19 9 -18 12 -6 -2 rcurveline
          -6 -13 -14 -7 -12 -6 rrcurveto
          -5 -10 -23 -8 -11 hhcurveto
          -42 19 -24 45 -19 41 -174 374 rcurveline
          113 108 28 61 5 47 46 callsubr
          93 callgsubr
          hintmask 11101000
          -5 -37 -49 -3 -50 hhcurveto
          -23 -23 13 callgsubr
          13 -13 4 -15 -18 vvcurveto
          -42 -16 -61 -187 -197 vhcurveto
          endchar
        </CharString>
        <CharString name="L">
          90 callsubr
          683 70 callsubr
          hintmask 10011000
          205 355 2 callgsubr
          hintmask 10101000
          -23 callgsubr
          hintmask 01011000
          -45 callgsubr
          hintmask 10011000
          -60 callsubr
          endchar
        </CharString>
        <CharString name="Ldotaccent">
          90 callsubr
          346 9 callgsubr
          267 70 callsubr
          hintmask 10000110
          205 355 -62 callsubr
          hintmask 00110000
          219 -1 -72 callsubr
        </CharString>
        <CharString name="Lslash">
          90 callsubr
          306 -21 201 -20 217 70 callsubr
          hintmask 00110000
          256 371 rmoveto
          38 callgsubr
          -247 -126 rcurveline
          4 -10 1 -11 2 -11 4 -3 rcurveline
          21 15 41 24 41 20 rrcurveto
          hintmask 10000110
          69 43 -62 callsubr
          endchar
        </CharString>
        <CharString name="M">
          350 -6 callsubr
          hstemhm
          362 107 hintmask 10101000
          366 632 rmoveto
          -4 25 rlineto
          -4 -21 -22 -2 -22 hhcurveto
          hintmask 10011000
          -77 callsubr
          -112 -558 -37 callgsubr
          hintmask 01101000
          5 37 54 3 50 hhcurveto
          32 43 -1 -3 23 hvcurveto
          4 14 rlineto
          -38 20 -5 37 42 vvcurveto
          42 5 109 15 107 vhcurveto
          31 219 4 1 rlineto
          53 -162 78 -243 -112 vvcurveto
          -12 -1 -10 -1 -11 vhcurveto
          12 -8 26 30 36 25 35 21 rlinecurve
          4 50 21 86 125 346 3 -1 rcurveline
          24 -170 15 -264 -114 vvcurveto
          -70 callsubr
          rrcurveto
          hintmask 10101000
          48 callgsubr
          hintmask 01101000
          6 40 63 2 40 hhcurveto
          hintmask 10101000
          -91 callgsubr
          -20 86 -27 327 94 vvcurveto
          19 1 33 4 19 vhcurveto
          62 callgsubr
          -5 25 rcurveline
          -6 -39 -84 -2 -39 hhcurveto
          -25 -64 2 2 -25 hvcurveto
          -3 -14 rlineto
          14 -4 20 -14 -14 vvcurveto
          -114 -363 -9 -32 -1 -17 -7 -2 rcurveline
          -32 100 rlineto
          -66 206 -12 68 32 vvcurveto
          11 15 10 26 10 vhcurveto
          endchar
        </CharString>
        <CharString name="N">
          74 callsubr
          95 callsubr
          53 340 53 hintmask 10101100
          291 632 -14 callsubr
          hintmask 10011100
          -65 callgsubr
          hintmask 01101100
          -56 callgsubr
          hintmask 10101100
          -42 callgsubr
          hintmask 01101100
          81 callgsubr
          hintmask 10101100
          -74 callgsubr
        </CharString>
        <CharString name="Nacute">
          74 callsubr
          79 10 callgsubr
          130 53 340 53 hintmask 00001100
          554 -76 callgsubr
          hintmask 10100011
          -57 -90 -14 callsubr
          hintmask 10010011
          -65 callgsubr
          hintmask 01100011
          -56 callgsubr
          hintmask 10100011
          -42 callgsubr
          hintmask 01100011
          81 callgsubr
          hintmask 10100011
          -74 callgsubr
        </CharString>
        <CharString name="Ntilde">
          74 callsubr
          73 8 callsubr
          130 53 340 53 hintmask 0000011000000000
          219 744 -16 callgsubr
          hintmask 1010000110000000
          90 -123 -14 callsubr
          hintmask 1001000110000000
          -65 callgsubr
          hintmask 0110000110000000
          -56 callgsubr
          hintmask 1010000110000000
          -42 callgsubr
          hintmask 0110000110000000
          81 callgsubr
          hintmask 1010000110000000
          -74 callgsubr
        </CharString>
        <CharString name="O">
          27 callsubr
          hstem
          33 callgsubr
          vstem
          313 666 -104 callgsubr
        </CharString>
        <CharString name="OE">
          297 -15 79 257 37 126 -20 136 51 -37 37 11 -20 hstemhm
          42 99 278 82 hintmask 11101011
          547 651 rmoveto
          hintmask 11100111
          -73 -27 11 -53 hhcurveto
          -203 -22 -149 -190 -203 vvcurveto
          -133 78 -106 134 -23 vhcurveto
          69 13 70 33 49 50 rrcurveto
          4 hlineto
          -64 31 54 -32 85 79 callsubr
          -41 -41 -49 -37 -57 hhcurveto
          -119 -18 -39 callsubr
          hintmask 11101011
          31 callsubr
          hintmask 11100111
          4 58 14 58 41 42 -4 20 rcurveline
          hintmask 11101011
          -6 -63 -127 -5 -63 hhcurveto
          -116 -74 rmoveto
          -60 -12 -117 -148 vvcurveto
          -112 -4 -36 -25 -33 vhcurveto
          -15 -21 -30 -6 -26 hhcurveto
          -115 -57 116 115 109 22 111 78 77 hvcurveto
          hintmask 11110011
          16 22 35 6 27 hhcurveto
          39 30 -7 -16 37 hvcurveto
          endchar
        </CharString>
        <CharString name="Oacute">
          27 callsubr
          77 68 callgsubr
          485 -76 callgsubr
          hintmask 11001100
          34 -56 -104 callgsubr
        </CharString>
        <CharString name="Ocircumflex">
          27 callsubr
          70 32 callsubr
          33 callgsubr
          hintmask 00110000
          482 -70 callgsubr
          hintmask 11001100
          -8 -124 -104 callgsubr
        </CharString>
        <CharString name="Odieresis">
          27 callsubr
          97 21 callsubr
          33 callgsubr
          hintmask 00110000
          283 -85 callgsubr
          hintmask 11001100
          -155 -137 -104 callgsubr
        </CharString>
        <CharString name="Ograve">
          27 callsubr
          86 68 callgsubr
          375 -59 callgsubr
          hintmask 11001100
          144 -140 -104 callgsubr
        </CharString>
        <CharString name="Oslash">
          88 -66 -21 72 72 537 72 73 -20 hstemhm
          33 callgsubr
          hintmask 10010000
          158 -87 rmoveto
          232 611 22 callsubr
          -140 -368 rcurveline
          -22 -57 -39 -93 -25 -56 6 -9 11 -10 9 -5 rrcurveto
          hintmask 01101100
          160 753 -104 callgsubr
        </CharString>
        <CharString name="Otilde">
          27 callsubr
          71 8 callsubr
          33 callgsubr
          hintmask 00011000
          175 744 -12 callsubr
          hintmask 00101000
          -89 callsubr
          hintmask 11000110
          156 -89 -104 callgsubr
        </CharString>
        <CharString name="P">
          -2 -56 callsubr
          295 33 273 50 8 21 callgsubr
          216 94 hintmask 10110110
          118 74 callgsubr
          hintmask 01110110
          -56 callgsubr
          hintmask 10110110
          -92 callgsubr
          37 -7 -24 callsubr
          20 28 1 20 hhcurveto
          94 46 -28 -94 -100 -55 -51 -100 hvcurveto
          -12 hlineto
          -4 -32 rlineto
          64 callgsubr
          121 -72 36 -121 hvcurveto
          hintmask 10101110
          -84 -108 -83 callsubr
          -7 -132 -5 -34 vhcurveto
          endchar
        </CharString>
        <CharString name="Q">
          88 -200 52 92 197 -72 72 453 72 hstemhm
          53 86 332 89 hintmask 11011100
          765 -56 rmoveto
          20 callgsubr
          -67 -135 107 41 -124 vhcurveto
          158 71 82 144 172 -18 callsubr
          -159 -45 -101 -157 -165 vvcurveto
          hintmask 10111100
          -141 74 -89 141 vhcurveto
          61 54 51 73 80 vvcurveto
          28 -8 36 -28 -3 -3 0 -1 -2 vhcurveto
          -7 -19 -13 -22 -13 -16 2 -7 rcurveline
          20 -10 12 -48 -22 vvcurveto
          -32 -12 -33 -22 -34 hhcurveto
          -101 -18 132 102 67 10 61 33 57 hvcurveto
          23 26 39 11 33 hhcurveto
          145 46 -137 -147 -139 -69 -95 -123 -65 hvcurveto
          2 -11 -13 3 -10 hhcurveto
          -51 -16 -71 -42 -36 -32 17 -16 rcurveline
          hintmask 11011100
          25 32 34 9 41 hhcurveto
          90 141 -92 -52 74 25 callgsubr
          endchar
        </CharString>
        <CharString name="R">
          40 callgsubr
          hstemhm
          144 77 211 94 hintmask 10101100
          65 callsubr
          hintmask 01101100
          60 callgsubr
          hintmask 10101100
          -84 callgsubr
          hintmask 01101100
          42 callsubr
          hintmask 10101100
          -50 callgsubr
          hintmask 10011100
          -77 callgsubr
          endchar
        </CharString>
        <CharString name="Racute">
          40 callgsubr
          104 10 callgsubr
          144 77 211 94 hintmask 00001100
          487 -76 callgsubr
          hintmask 10100011
          -150 -687 -82 callsubr
          endchar
        </CharString>
        <CharString name="Rcaron">
          40 callgsubr
          97 32 callsubr
          144 77 211 94 hintmask 10100011
          131 35 -82 callsubr
          hintmask 00001100
          87 775 -41 callgsubr
        </CharString>
        <CharString name="Rcommaaccent">
          105 41 callsubr
          601 50 8 -20 hstemhm
          144 77 211 94 hintmask 00101011
          65 callsubr
          hintmask 00011011
          60 callgsubr
          hintmask 00101011
          -84 callgsubr
          hintmask 00011011
          42 callsubr
          hintmask 00101011
          -50 callgsubr
          hintmask 00100111
          -77 callgsubr
          hintmask 11000000
          251 -119 -55 callgsubr
        </CharString>
        <CharString name="S">
          56 callsubr
          hstemhm
          11 34 23 67 219 25 -25 66 hintmask 1101111010000000
          -15 callsubr
          hintmask 1101111100000000
          -40 callgsubr
          hintmask 1011111100000000
          49 callsubr
          endchar
        </CharString>
        <CharString name="Scaron">
          56 callsubr
          70 32 callsubr
          11 34 23 67 219 25 -25 66 hintmask 1101100110100000
          -15 callsubr
          hintmask 1101100111000000
          -40 callgsubr
          hintmask 1011100111000000
          49 callsubr
          hintmask 0000011000000000
          258 855 -41 callgsubr
        </CharString>
        <CharString name="T">
          5 -56 callsubr
          598 47 -47 68 52 -20 hstemhm
          221 77 hintmask 10101100
          126 -46 callsubr
          26 19 callgsubr
          hintmask 01101100
          -56 callgsubr
          hintmask 10101100
          52 callsubr
          37 -8 113 170 vvcurveto
          84 3 94 4 62 vhcurveto
          51 -4 52 -8 45 -12 33 -9 rcurveline
          8 57 21 42 35 45 -16 12 rcurveline
          -19 -23 -24 -23 -22 -21 rrcurveto
          -4 -13 -22 -2 -17 hhcurveto
          hintmask 10011100
          -87 -67 16 5 -137 hvcurveto
          endchar
        </CharString>
        <CharString name="Thorn">
          3 0 198 -185 -21 173 33 280 -20 33 37 -37 160 8 21 callgsubr
          210 94 hintmask 1001101110000000
          16 callsubr
          hintmask 1001010110000000
          -23 callgsubr
          hintmask 0111101110000000
          -94 callgsubr
          hintmask 1001101110000000
          -56 callgsubr
          hintmask 0111101110000000
          -92 callsubr
          113 170 vvcurveto
          39 0 44 2 40 vhcurveto
          1 hlineto
          9 26 25 4 27 hhcurveto
          92 37 -50 -92 hvcurveto
          hintmask 1001101110000000
          -100 -55 -51 -100 vhcurveto
          -12 hlineto
          -4 -32 rlineto
          hintmask 0111101110000000
          64 callgsubr
          122 -84 42 -122 -24 -33 -2 -1 -37 hvcurveto
          2 42 2 33 3 16 rrcurveto
          endchar
        </CharString>
        <CharString name="U">
          -8 callgsubr
          hstemhm
          103 80 275 77 hintmask 10101100
          245 655 rmoveto
          -3 -21 -18 -1 -22 hhcurveto
          hintmask 10011100
          -95 callsubr
          hintmask 01101100
          -95 callgsubr
          hintmask 10101100
          -55 callsubr
        </CharString>
        <CharString name="Uacute">
          -8 callgsubr
          79 67 callsubr
          538 -76 callgsubr
          hintmask 10100011
          -87 -67 -104 callsubr
        </CharString>
        <CharString name="Ucircumflex">
          -8 callgsubr
          72 32 callsubr
          103 80 275 77 hintmask 00001100
          516 -70 callgsubr
          hintmask 10100011
          -110 -135 -104 callsubr
        </CharString>
        <CharString name="Udieresis">
          -8 callgsubr
          99 21 callsubr
          103 80 275 77 hintmask 00001100
          317 -85 callgsubr
          hintmask 10100011
          -257 -148 -104 callsubr
        </CharString>
        <CharString name="Ugrave">
          -8 callgsubr
          88 67 callsubr
          392 -59 callgsubr
          hintmask 10100011
          59 -151 -104 callsubr
        </CharString>
        <CharString name="V">
          85 -6 callsubr
          hstemhm
          448 94 hintmask 01101000
          331 35 rmoveto
          147 272 64 122 126 -6 callgsubr
          -85 -22 -99 -119 -265 vhcurveto
          -63 176 -67 246 -13 115 27 7 32 9 26 40 callsubr
          hintmask 01011000
          -40 callsubr
          3 23 39 1 32 hhcurveto
          hintmask 10101000
          50 54 -3 -5 37 hvcurveto
          4 22 -22 7 -51 11 -23 3 rlinecurve
          endchar
        </CharString>
        <CharString name="W">
          392 17 -21 25 95 callgsubr
          68 -37 24 hstemhm
          428 94 233 94 hintmask 10101100
          330 34 rmoveto
          65 130 44 97 31 79 rrcurveto
          4 hlineto
          66 -223 5 -45 -31 39 callsubr
          hintmask 01101100
          3 23 39 1 32 hhcurveto
          hintmask 10011100
          41 26 -2 -2 24 hvcurveto
          3 21 -15 4 -20 7 -11 6 rlinecurve
          139 278 53 127 116 -6 callgsubr
          88 callgsubr
          -45 131 -46 148 -29 130 rrcurveto
          5 27 3 25 25 vvcurveto
          20 -2 17 -3 21 vhcurveto
          23 4 51 12 93 callgsubr
          -10 -97 -63 0 -153 hhcurveto
          -117 hlineto
          hintmask 10101100
          -40 callsubr
          hintmask 01101100
          3 23 39 1 32 hhcurveto
          hintmask 10011100
          41 26 -2 -2 24 hvcurveto
          3 21 -15 4 -20 7 -11 6 rlinecurve
          98 484 rmoveto
          88 callgsubr
          -65 181 -66 249 -12 110 rrcurveto
          11 36 69 7 37 hhcurveto
          93 29 -16 -93 hvcurveto
          endchar
        </CharString>
        <CharString name="X">
          131 -6 callsubr
          hstemhm
          hintmask 10100000
          331 632 -14 callsubr
          hintmask 10010000
          -64 -62 -43 callsubr
          24 25 55 8 53 hhcurveto
          161 -269 -84 -113 -86 -122 -34 -54 rlinecurve
          -23 -3 -51 -11 -23 -7 5 -25 rcurveline
          hintmask 01100000
          6 43 51 2 43 hhcurveto
          hintmask 10100000
          50 63 -3 -5 50 -87 callgsubr
          25 60 111 69 115 vhcurveto
          75 -123 40 -88 -43 vvcurveto
          -9 -1 -7 -3 -6 vhcurveto
          4 -14 rlineto
          hintmask 01100000
          42 callsubr
          hintmask 10100000
          50 54 -3 -5 37 -38 callsubr
          -196 310 84 111 70 97 36 57 rlinecurve
          62 callgsubr
          -5 25 rcurveline
          -34 callsubr
          -27 -44 -87 -66 -108 vhcurveto
          -61 101 -34 74 -5 43 44 callgsubr
          rrcurveto
          endchar
        </CharString>
        <CharString name="Y">
          31 -12 callgsubr
          142 91 callgsubr
          hintmask 10111000
          223 74 callgsubr
          hintmask 01111000
          -56 callgsubr
          hintmask 10111000
          -91 callsubr
          endchar
        </CharString>
        <CharString name="Yacute">
          31 -12 callgsubr
          112 -21 51 -20 115 91 callgsubr
          hintmask 00010100
          493 -76 callgsubr
          hintmask 10101010
          -64 -684 -71 callgsubr
          endchar
        </CharString>
        <CharString name="Ydieresis">
          31 -12 callgsubr
          132 -21 31 -20 100 91 callgsubr
          hintmask 10101010
          223 38 -71 callgsubr
          hintmask 00010100
          41 765 -96 callgsubr
        </CharString>
        <CharString name="Z">
          86 callgsubr
          hstem
          -18 77 vstem
          -63 callsubr
          endchar
        </CharString>
        <CharString name="Zcaron">
          86 callgsubr
          72 32 callsubr
          -18 77 hintmask 11100100
          -63 callsubr
          hintmask 00011000
          -77 217 -41 callgsubr
        </CharString>
        <CharString name="a">
          21 -35 callsubr
          hstemhm
          147 196 0 75 hintmask 10101100
          -73 callgsubr
          hintmask 01110100
          -93 callgsubr
          hintmask 10110100
          28 callsubr
          hintmask 01110100
          18 callgsubr
          hintmask 10101010
          -84 callsubr
          hintmask 10110100
          17 callsubr
          hintmask 10101100
          -71 callsubr
          hintmask 10110100
          -65 callsubr
          endchar
        </CharString>
        <CharString name="aacute">
          -86 callgsubr
          217 431 -67 callsubr
          endchar
        </CharString>
        <CharString name="acircumflex">
          21 -35 callsubr
          63 -21 185 -86 callsubr
          50 408 -66 callsubr
        </CharString>
        <CharString name="acute">
          -314 579 -21 hstem
          200 -24 callgsubr
          endchar
        </CharString>
        <CharString name="acute.cap">
          -299 743 20 callsubr
          hstem
          214 -76 callgsubr
          endchar
        </CharString>
        <CharString name="adieresis">
          21 -35 callsubr
          109 -21 111 -86 callsubr
          5 425 -96 callgsubr
        </CharString>
        <CharString name="ae">
          119 -12 70 -37 -21 255 36 194 -20 23 33 12 -20 hstemhm
          148 155 0 77 -77 236 hintmask 0111101000000000
          50 34 rmoveto
          -17 -3 -35 -8 -14 -5 4 -26 rcurveline
          5 23 55 3 33 hhcurveto
          18 43 -13 callsubr
          -25 14 -5 23 28 vvcurveto
          32 20 73 10 36 vhcurveto
          9 32 rlineto
          4 17 26 1 17 hhcurveto
          16 24 -2 -3 17 hvcurveto
          -1 -50 rlineto
          hintmask 1011100100000000
          -128 -3 44 -84 128 30 callgsubr
          30 vlineto
          29 callgsubr
          hintmask 1011100010000000
          -57 callsubr
          -26 -7 -38 hhcurveto
          hintmask 1011100100000000
          -9 callsubr
          hintmask 1011011000000000
          84 callsubr
          hintmask 1011101000000000
          -5 -51 -161 -7 -50 hhcurveto
          -77 -68 2 9 -77 hvcurveto
          -3 -26 24 -7 27 -5 23 -4 rlinecurve
          51 -8 rmoveto
          2 9 12 1 6 hhcurveto
          7 11 -1 -2 8 hvcurveto
          2 -13 0 -14 -15 vvcurveto
          -21 -6 -49 -3 -73 vhcurveto
          -5 -17 -23 -1 -16 hhcurveto
          -17 -15 1 4 -15 hvcurveto
          endchar
        </CharString>
        <CharString name="agrave">
          -86 callgsubr
          68 322 rmoveto
          11 18 -51 35 -51 62 -30 54 rlinecurve
          -12 1 -20 0 -11 -2 -9 -11 -15 -34 -1 87 callgsubr
        </CharString>
        <CharString name="ampersand">
          88 -15 71 277 43 -26 26 97 -20 141 72 12 -20 hstemhm
          50 94 -63 92 241 68 hintmask 1101011010000000
          394 566 -59 callsubr
          hintmask 1011100110000000
          -51 callsubr
          hintmask 1101101010000000
          -95 -95 -66 -95 -134 115 -66 134 hvcurveto
          83 27 100 84 87 vvcurveto
          150 vlineto
          30 -1 43 -3 30 -4 3 4 rcurveline
          2 26 3 22 8 26 -5 5 rcurveline
          -22 -78 -95 -10 -80 hhcurveto
          hintmask 1101100110000000
          -125 -55 59 -41 callsubr
          20 -440 rmoveto
          -11 -2 -25 -5 -10 vhcurveto
          -19 -29 -31 -5 -34 hhcurveto
          hintmask 1101101010000000
          -92 -77 48 102 95 87 32 95 hvcurveto
          74 hlineto
          7 -50 7 -107 -50 vvcurveto
          endchar
        </CharString>
        <CharString name="aring">
          0 -35 callsubr
          46 35 111 35 hstemhm
          147 196 -129 47 82 75 -58 47 -82 callgsubr
          hintmask 1010100001000000
          -83 callgsubr
          hintmask 0000011010100000
          -40 395 rmoveto
          -75 callgsubr
        </CharString>
        <CharString name="asciicircum">
          4 312 -21 405 -20 hstem
          259 580 rmoveto
          180 -289 29 15 -48 82 -53 100 -83 208 rlinecurve
          -53 -10 -83 -208 -50 -90 -48 -82 rlinecurve
          29 -15 rlineto
          endchar
        </CharString>
        <CharString name="asciitilde">
          76 188 70 70 -20 hstem
          68 200 rmoveto
          35 23 37 19 41 66 88 -66 66 hhcurveto
          56 16 68 49 27 52 -18 11 rcurveline
          -37 -31 -38 -21 -49 hhcurveto
          -62 -78 34 36 -53 hvcurveto
          -60 -7 -72 -57 -29 -53 rrcurveto
          endchar
        </CharString>
        <CharString name="asterisk">
          -143 404 -21 139 50 79 -20 80 -20 hstem
          231 676 rmoveto
          -2 2 rlineto
          -6 -14 -5 -1 -6 hvcurveto
          -4 11 -8 25 -6 3 -7 -4 -7 -24 -4 -11 rrcurveto
          1 -6 -14 5 -6 hhcurveto
          -2 -2 17 -29 14 -45 5 -38 rlinecurve
          -31 23 -31 34 -16 30 rrcurveto
          -3 hlineto
          -3 -6 -3 -14 -2 -6 -11 2 -26 6 -6 -4 rrcurveto
          -8 18 -18 7 -9 vhcurveto
          -4 -5 -11 -9 -3 -6 1 -2 rcurveline
          34 1 45 -11 36 -15 -36 -16 -45 -10 -34 1 -1 -2 rcurveline
          3 -6 11 -9 4 -5 rrcurveto
          -7 -9 -18 -19 -7 vvcurveto
          7 -4 25 6 11 2 2 -6 3 -14 3 -6 rrcurveto
          3 hlineto
          16 29 31 35 31 23 -5 -39 -14 -44 -17 -29 2 -2 rcurveline
          6 14 5 1 6 hvcurveto
          4 -11 8 -25 6 -3 7 4 7 24 4 11 rrcurveto
          -1 6 14 -5 6 hhcurveto
          2 2 -18 29 -14 44 -4 39 rlinecurve
          31 -23 31 -35 16 -29 rrcurveto
          3 hlineto
          3 6 3 14 2 6 11 -2 26 -6 6 4 rrcurveto
          8 -18 18 -7 9 vhcurveto
          4 5 11 9 3 6 -1 2 rcurveline
          -34 -1 -46 10 -36 16 36 15 46 11 34 -1 1 2 rcurveline
          -3 6 -11 9 -4 5 rrcurveto
          7 9 18 19 7 vvcurveto
          -7 4 -25 -6 -11 -2 -2 6 -3 14 -3 6 rrcurveto
          -3 hlineto
          -16 -30 -31 -34 -31 -23 4 38 14 45 18 29 rrcurveto
          endchar
        </CharString>
        <CharString name="at">
          346 -190 50 161 -21 187 36 227 38 128 50 hstem
          55 66 402 75 161 64 vstem
          300 499 rmoveto
          -3 -26 20 -6 39 -7 18 -3 rlinecurve
          -121 -423 -18 -3 -33 -8 -15 -5 47 callgsubr
          5 21 58 3 30 hhcurveto
          17 48 -13 callsubr
          -26 15 -9 20 29 vvcurveto
          30 9 43 8 33 vhcurveto
          4 22 28 1 27 hhcurveto
          24 35 -2 -3 22 hvcurveto
          -2 -56 8 -89 25 -49 7 -3 rcurveline
          158 23 104 158 197 vvcurveto
          215 -134 88 -215 vhcurveto
          -261 -37 -158 -211 -263 vvcurveto
          -235 111 -110 235 vhcurveto
          44 10 53 23 37 26 -7 13 rcurveline
          -14 -36 -45 -8 -38 hhcurveto
          -195 -93 116 196 138 60 165 100 95 hvcurveto
          29 47 65 17 65 hhcurveto
          197 104 -90 -197 -114 -40 -131 -93 -51 hvcurveto
          -6 3 rlineto
          -13 34 -9 68 125 vvcurveto
          70 8 94 3 28 vhcurveto
          15 3 33 9 14 -11 callgsubr
          -7 -56 -83 -4 -56 hhcurveto
          -53 -63 4 7 -56 hvcurveto
          142 -276 rmoveto
          -25 -23 2 4 -20 hvcurveto
          0 3 15 49 204 vhcurveto
          1 13 16 73 callgsubr
          15 17 -1 -2 13 hvcurveto
          4 -25 4 -79 -114 vvcurveto
          -5 -22 -35 -1 -24 hhcurveto
          endchar
        </CharString>
        <CharString name="atilde">
          21 -35 callsubr
          84 69 -38 38 31 58 callgsubr
          hintmask 1010100010000000
          -73 callgsubr
          hintmask 0111000010000000
          -93 callgsubr
          hintmask 1011000010000000
          28 callsubr
          hintmask 0111000010000000
          18 callgsubr
          hintmask 1010100001000000
          -84 callsubr
          hintmask 1011000010000000
          17 callsubr
          hintmask 1010100010000000
          -71 callsubr
          hintmask 1011000010000000
          -65 callsubr
          hintmask 0000001100000000
          -88 367 -12 callsubr
          hintmask 0000010100000000
          -89 callsubr
          endchar
        </CharString>
        <CharString name="b">
          10 2 -21 28 -21 64 221 21 -21 21 197 0 35 hstemhm
          112 75 163 90 -66 66 -66 88 hintmask 0101011001000000
          267 -12 rmoveto
          80 23 115 90 89 vvcurveto
          74 -60 30 -74 vhcurveto
          4 vlineto
          hintmask 1010011010000000
          58 23 54 51 59 vvcurveto
          88 -75 7 -88 vhcurveto
          -52 -114 24 callgsubr
          -27 6 -86 -108 vvcurveto
          -94 -2 -100 -17 -80 vhcurveto
          54 callgsubr
          hintmask 0110101010000000
          -13 32 67 -17 34 hhcurveto
          -45 285 rmoveto
          92 60 -28 -92 -27 -5 -31 -12 -24 hvcurveto
          -14 -19 -30 -5 -23 hhcurveto
          -31 -35 7 15 -28 hvcurveto
          -4 56 0 68 62 vvcurveto
          139 1 23 6 58 14 callgsubr
          hintmask 1010101100000000
          60 35 -27 -60 -27 -8 -31 -17 -21 hvcurveto
          -15 -25 -36 -2 -29 hhcurveto
          -9 hlineto
          endchar
        </CharString>
        <CharString name="backslash">
          -163 -24 -21 762 -20 hstem
          282 -45 rmoveto
          14 6 17 10 10 12 -23 57 -29 77 -20 58 -109 318 rcurveline
          -27 80 -20 62 -22 82 rrcurveto
          -4 hlineto
          -15 -9 -16 -6 -17 -6 19 -49 25 -69 34 -100 178 -523 rcurveline
          endchar
        </CharString>
        <CharString name="bar">
          -276 -195 -21 966 -20 hstem
          96 48 vstem
          144 -199 rmoveto
          769 1 108 15 callsubr
          4 -79 -751 vvcurveto
          7 -3 13 4 19 8 9 5 rlinecurve
          endchar
        </CharString>
        <CharString name="braceleft">
          -214 61 callsubr
          hstemhm
          89 55 -28 28 -28 73 hintmask 11100000
          224 711 rmoveto
          -59 -17 -76 -63 -62 vvcurveto
          hintmask 11010000
          -95 27 -70 -95 vvcurveto
          -31 -41 -16 -31 -7 vhcurveto
          4 -19 rlineto
          30 -5 38 -15 -29 vvcurveto
          hintmask 11100000
          -95 -27 -70 -95 vvcurveto
          -62 76 -63 59 -17 vhcurveto
          4 14 -35 18 -37 38 -12 37 rlinecurve
          hintmask 11001000
          92 45 101 82 vvcurveto
          -13 31 -49 31 -29 17 rrcurveto
          4 vlineto
          29 17 49 31 13 31 rrcurveto
          hintmask 11100000
          82 -45 101 92 vvcurveto
          12 37 37 38 35 18 rrcurveto
          endchar
        </CharString>
        <CharString name="braceright">
          -226 61 callsubr
          hstemhm
          111 73 -28 28 -28 55 hintmask 11010000
          72 697 rmoveto
          35 -18 37 -38 12 -37 rrcurveto
          hintmask 11100000
          -92 -45 -101 -82 vvcurveto
          13 -31 49 -31 29 -17 rrcurveto
          -4 vlineto
          -29 -17 -49 -31 -13 -31 rrcurveto
          hintmask 11001000
          -82 45 -101 -92 vvcurveto
          -12 -37 -37 -38 -35 -18 4 -14 rcurveline
          59 17 76 63 62 vvcurveto
          hintmask 11100000
          95 -27 70 95 vvcurveto
          29 38 15 30 5 vhcurveto
          4 19 rlineto
          -31 7 -41 16 31 vvcurveto
          hintmask 11001000
          95 27 70 95 vvcurveto
          62 -76 63 -59 17 vhcurveto
          endchar
        </CharString>
        <CharString name="bracketleft">
          85 callsubr
          104 60 vstem
          296 -172 rmoveto
          -34 1 -65 7 -33 9 rrcurveto
          806 vlineto
          33 9 65 7 34 1 rrcurveto
          21 vlineto
          -61 -1 -74 1 -60 15 -7 -5 rcurveline
          7 -48 3 -196 -206 vvcurveto
          -206 -3 -198 -7 -48 vhcurveto
          7 -5 60 15 74 1 61 -1 rlinecurve
          endchar
        </CharString>
        <CharString name="bracketright">
          85 callsubr
          162 60 vstem
          30 -193 rmoveto
          61 1 74 -1 60 -15 7 5 rcurveline
          -7 48 -3 198 206 vvcurveto
          206 3 196 7 48 vhcurveto
          -7 5 -60 -15 -74 -1 -61 1 rlinecurve
          -21 vlineto
          34 -1 65 -7 33 -9 rrcurveto
          -806 vlineto
          -33 -9 -65 -7 -34 -1 rrcurveto
          endchar
        </CharString>
        <CharString name="brokenbar">
          -269 67 callgsubr
          967 -20 hstem
          101 48 vstem
          149 340 rmoveto
          -1 callgsubr
          -538 vmoveto
          -1 callgsubr
          endchar
        </CharString>
        <CharString name="bullet">
          -165 162 -21 266 -20 hstem
          297 288 rmoveto
          -48 39 -34 24 -30 56 rrcurveto
          -20 hlineto
          -30 -56 -34 -24 -49 -40 rrcurveto
          -14 vlineto
          49 -39 35 -36 29 -57 rrcurveto
          20 hlineto
          29 57 35 36 48 40 rrcurveto
          endchar
        </CharString>
        <CharString name="c">
          -80 -12 70 413 62 hstem
          45 86 vstem
          -48 callsubr
          endchar
        </CharString>
        <CharString name="caron">
          -220 575 54 callsubr
          hstem
          13 739 12 callsubr
        </CharString>
        <CharString name="caron.cap">
          -172 736 46 callgsubr
          hstem
          171 810 -41 callgsubr
        </CharString>
        <CharString name="ccedilla">
          -127 67 callgsubr
          37 -20 186 70 -42 -20 475 62 hstemhm
          45 86 138 61 hintmask 00101100
          -48 callsubr
          hintmask 01010010
          -83 -155 -26 callgsubr
          hintmask 10010010
          -4 callgsubr
        </CharString>
        <CharString name="cedilla">
          -330 67 callgsubr
          37 -20 214 -20 hstemhm
          123 61 hintmask 01110000
          40 -97 -26 callgsubr
          hintmask 10110000
          -4 callgsubr
        </CharString>
        <CharString name="cent">
          -64 -71 -21 686 -20 hstem
          76 80 75 38 -27 27 vstem
          264 72 rmoveto
          -1 hlineto
          13 365 18 -1 19 -5 19 -5 rlinecurve
          35 callsubr
          -30 4 -46 hhcurveto
          2 44 2 22 4 25 -4 3 rcurveline
          -9 -3 -10 -2 -9 -1 -4 -98 rcurveline
          -106 -43 -68 -118 63 callsubr
          -117 46 -82 112 -6 vhcurveto
          -6 -77 7 -6 11 -6 9 -3 rlinecurve
          5 hlineto
          1 98 51 24 45 41 31 44 rlinecurve
          -10 10 rlineto
          -28 -31 -42 -25 -41 hhcurveto
          -108 188 rmoveto
          50 7 58 22 46 vhcurveto
          19 17 20 6 24 1 -12 -363 rcurveline
          -71 16 -9 83 86 vvcurveto
          endchar
        </CharString>
        <CharString name="circumflex">
          -220 575 54 callsubr
          hstem
          147 644 -66 callsubr
        </CharString>
        <CharString name="circumflex.cap">
          -172 736 46 callgsubr
          hstem
          332 -70 callgsubr
          endchar
        </CharString>
        <CharString name="colon">
          -302 6 -21 500 -20 hstem
          160 46 -102 callgsubr
          6 callsubr
        </CharString>
        <CharString name="comma">
          -301 -118 -21 235 -20 hstem
          160 46 -52 callsubr
          endchar
        </CharString>
        <CharString name="commaaccent">
          -398 67 callgsubr
          181 -20 hstem
          116 -84 -55 callgsubr
        </CharString>
        <CharString name="copyright">
          251 -15 42 92 58 302 187 -135 -20 113 42 hstemhm
          42 44 137 71 385 44 hintmask 11100111
          388 177 rmoveto
          -81 -13 76 81 38 10 56 18 35 hvcurveto
          12 17 18 4 20 hhcurveto
          19 28 -6 -9 17 hvcurveto
          -15 3 -21 4 -17 vhcurveto
          18 hlineto
          3 30 6 27 12 26 6 4 10 2 8 1 1 17 rcurveline
          hintmask 11011111
          8 -35 -48 5 -37 hhcurveto
          -97 -34 -72 -106 -102 vvcurveto
          -103 48 -67 103 vhcurveto
          46 20 44 29 32 40 -12 13 rcurveline
          -24 -26 -35 -20 -35 hhcurveto
          -346 148 rmoveto
          -188 152 -152 188 188 153 152 188 vhcurveto
          188 -153 153 -188 -188 -152 -153 -188 vhcurveto
          44 hmoveto
          164 132 135 164 164 133 -135 -164 -164 -133 -134 -164 -164 -132 134 164 vhcurveto
          endchar
        </CharString>
        <CharString name="currency">
          53 84 -21 53 54 299 54 45 -20 hstem
          81 73 269 73 vstem
          81 286 rmoveto
          -41 13 -34 21 -26 vhcurveto
          -29 -27 -29 -27 -25 -21 3 -15 11 -21 10 -11 rrcurveto
          5 hlineto
          91 89 rlineto
          -24 37 48 -12 52 hhcurveto
          45 9 39 18 33 25 101 -105 rcurveline
          15 5 21 8 17 3 2 4 rcurveline
          -32 28 -38 36 -53 51 rrcurveto
          36 40 21 52 60 vvcurveto
          43 -12 35 -21 27 vhcurveto
          99 93 -2 4 -17 3 -21 8 -15 5 rlinecurve
          -28 -29 -24 -27 -25 -25 rrcurveto
          23 -34 -44 13 -51 hhcurveto
          -52 -9 -46 -20 -37 -30 -105 104 rcurveline
          -5 hlineto
          -10 -11 -11 -21 -3 -15 30 -26 37 -33 34 -31 rrcurveto
          -33 -39 -19 -50 -56 vvcurveto
          192 183 rmoveto
          102 48 -63 -96 -38 -10 -45 -22 -31 hvcurveto
          -19 -21 -36 -7 -30 hhcurveto
          -101 -49 65 94 38 10 45 22 31 hvcurveto
          19 21 36 7 30 hhcurveto
          endchar
        </CharString>
        <CharString name="d">
          25 2 -21 28 -21 503 89 callsubr
          hintmask 01111000
          -3 callsubr
          -27 6 -86 -108 vvcurveto
          -94 -2 -100 -17 -80 vhcurveto
          hintmask 10111000
          54 callgsubr
          hintmask 01111000
          -5 callsubr
          55 0 70 60 vvcurveto
          136 1 28 6 56 14 callgsubr
          endchar
        </CharString>
        <CharString name="degree">
          -147 396 39 193 39 hstem
          45 57 163 57 vstem
          45 509 rmoveto
          -75 64 -38 75 vhcurveto
          81 17 57 58 81 vvcurveto
          75 -55 40 -75 vhcurveto
          -83 -14 -64 -60 -84 vvcurveto
          129 119 rmoveto
          62 29 -41 -62 -24 -6 -29 -13 -20 hvcurveto
          -12 -13 -22 -5 -18 hhcurveto
          -61 -30 42 61 24 6 29 13 20 hvcurveto
          12 13 22 5 18 hhcurveto
          endchar
        </CharString>
        <CharString name="dieresis">
          -221 621 52 callgsubr
          661 -96 callgsubr
        </CharString>
        <CharString name="dieresis.cap">
          -221 763 52 callgsubr
          -85 callgsubr
          endchar
        </CharString>
        <CharString name="divide">
          36 66 91 65 49 68 91 hstem
          229 89 vstem
          318 385 rmoveto
          50 callgsubr
          -273 vmoveto
          50 callgsubr
          178 156 rmoveto
          -19 callsubr
          -8 callsubr
          61 callgsubr
          endchar
        </CharString>
        <CharString name="dollar">
          -64 -71 -21 98 -21 538 -20 91 -20 hstemhm
          93 60 60 26 -8 26 71 60 hintmask 11111011
          122 75 rmoveto
          59 callgsubr
          -4 -45 -10 -31 -29 -36 rrcurveto
          -13 vlineto
          -18 50 48 -8 53 hhcurveto
          -5 -62 7 -7 10 -5 10 -3 rlinecurve
          5 hlineto
          1 90 rlineto
          88 43 66 78 70 vvcurveto
          44 -71 41 -63 37 vhcurveto
          6 147 29 -1 20 -5 25 -9 rlinecurve
          3 -23 0 -16 57 callgsubr
          -51 -36 3 -52 hhcurveto
          1 24 2 19 4 25 -4 3 rcurveline
          hintmask 11111101
          -8 -3 -10 -2 -9 -1 -3 -77 rcurveline
          -77 -39 -66 -71 -59 vvcurveto
          -42 64 -40 61 -36 vhcurveto
          -9 -174 -30 2 -31 9 -26 14 rlinecurve
          206 57 rmoveto
          -57 -48 -21 -44 -4 vhcurveto
          7 159 rlineto
          46 -27 39 -26 -24 vvcurveto
          -175 267 rmoveto
          40 45 14 36 4 vhcurveto
          -5 -131 rlineto
          -42 26 -34 24 23 vvcurveto
          endchar
        </CharString>
        <CharString name="dotaccentcmb">
          -406 613 52 callgsubr
          653 -72 callsubr
        </CharString>
        <CharString name="dotaccentcmb.cap">
          -406 763 52 callgsubr
          803 -72 callsubr
        </CharString>
        <CharString name="dotlessi">
          -58 callgsubr
        </CharString>
        <CharString name="dotlessj">
          -49 callsubr
        </CharString>
        <CharString name="e">
          7 callsubr
          hstem
          45 86 vstem
          -98 callgsubr
          endchar
        </CharString>
        <CharString name="eacute">
          7 callsubr
          46 -21 hstemhm
          45 86 hintmask 00010000
          415 -24 callgsubr
          hintmask 11101000
          -95 -311 -103 callsubr
          endchar
        </CharString>
        <CharString name="ecircumflex">
          7 callsubr
          42 -21 185 -69 callsubr
          137 397 -66 callsubr
        </CharString>
        <CharString name="edieresis">
          7 callsubr
          88 -21 111 -69 callsubr
          99 414 -96 callgsubr
        </CharString>
        <CharString name="egrave">
          7 callsubr
          46 -21 hstemhm
          45 86 hintmask 11101000
          -98 callgsubr
          hintmask 00010000
          177 311 rmoveto
          11 18 -51 35 -51 62 -30 54 rlinecurve
          -12 1 -20 0 -11 -2 -9 -11 -15 -34 -1 87 callgsubr
        </CharString>
        <CharString name="eight">
          -39 -15 62 427 62 hstemhm
          62 74 -52 87 163 67 -67 88 hintmask 11011000
          262 536 rmoveto
          -56 -15 -91 -67 -31 -49 rrcurveto
          -60 39 -47 56 -35 vhcurveto
          hintmask 11100100
          -54 -37 -63 -49 -61 vvcurveto
          -85 86 -46 85 vhcurveto
          77 25 83 66 29 76 rrcurveto
          75 -63 36 -67 35 vhcurveto
          hintmask 11101000
          44 31 65 57 50 vvcurveto
          70 -69 30 -70 vhcurveto
          72 -414 rmoveto
          -15 -5 -22 -7 -14 vhcurveto
          -16 -15 -22 -8 -31 hhcurveto
          -61 -57 34 61 50 22 26 40 31 hvcurveto
          66 -40 70 -26 -61 vvcurveto
          hintmask 11011000
          -163 300 rmoveto
          11 2 9 3 9 vhcurveto
          12 11 29 11 25 hhcurveto
          48 38 -16 -48 -44 -23 -25 -33 -30 hvcurveto
          -58 29 -42 33 49 vvcurveto
          endchar
        </CharString>
        <CharString name="emdash">
          101 245 80 callsubr
          619 284 rmoveto
          9 callsubr
          -94 90 callgsubr
          -113 -236 3 6 -113 53 callgsubr
          606 hlineto
          endchar
        </CharString>
        <CharString name="endash">
          -104 245 80 callsubr
          417 284 rmoveto
          9 callsubr
          -44 90 callgsubr
          -143 -86 3 6 -83 53 callgsubr
          406 hlineto
          endchar
        </CharString>
        <CharString name="equal">
          36 145 49 105 49 9 -20 hstemhm
          hintmask 11000000
          496 191 rmoveto
          -19 callsubr
          -8 callsubr
          61 callgsubr
          9 200 rmoveto
          -19 callsubr
          hintmask 10100000
          -8 callsubr
          rlineto
          hintmask 11000000
          61 callgsubr
          endchar
        </CharString>
        <CharString name="eth">
          25 2 -21 28 -21 64 206 25 208 0 89 callsubr
          hintmask 01101110
          -3 callsubr
          -25 5 -75 1 -96 -74 -3 -13 callgsubr
          21 3 33 4 24 1 rrcurveto
          -92 -3 -98 -16 -78 vhcurveto
          hintmask 10110110
          54 callgsubr
          hintmask 01110110
          -5 callsubr
          54 0 69 60 vvcurveto
          115 1 rlineto
          -35 callgsubr
          -22 -1 rcurveline
          108 1 31 6 52 14 callgsubr
          endchar
        </CharString>
        <CharString name="exclam">
          -288 6 -21 hstem
          82 37 vstem
          160 46 -102 callgsubr
          -67 134 rmoveto
          26 2 12 242 17 114 33 118 rlinecurve
          -9 13 -13 18 -10 9 -18 1 -43 -10 -16 -8 rrcurveto
          endchar
        </CharString>
        <CharString name="exclamdown">
          -288 486 -20 hstem
          107 36 vstem
          66 -1 callsubr
          -12 -235 -17 -113 -33 -111 rlinecurve
          9 -13 13 -18 10 -9 18 -1 43 10 16 8 rrcurveto
          endchar
        </CharString>
        <CharString name="f">
          -74 -56 callsubr
          252 36 196 37 11 4 callgsubr
          75 hintmask 10101100
          423 532 rmoveto
          hintmask 10110100
          -8 -47 -67 -3 -50 hhcurveto
          -60 -93 2 8 -60 hvcurveto
          -3 -25 18 -7 26 -7 20 -4 rlinecurve
          4 -45 6 -84 -75 vvcurveto
          -47 -28 callsubr
          -3 -24 77 callgsubr
          hintmask 01110100
          82 callgsubr
          hintmask 10110100
          78 callgsubr
          -33 6 -28 3 rlinecurve
          -3 26 -6 64 124 vvcurveto
          3 25 16 2 26 hhcurveto
          20 15 -67 callgsubr
          -24 -7 -38 hhcurveto
          -26 -16 2 5 -25 hvcurveto
          72 4 86 84 callgsubr
          3 18 24 1 17 hhcurveto
          28 39 2 callsubr
          hintmask 10101100
          3 49 8 40 34 36 rrcurveto
          endchar
        </CharString>
        <CharString name="five">
          -39 -15 62 236 63 96 68 27 -20 hstem
          325 88 vstem
          333 449 rmoveto
          8 -20 5 -19 5 -21 22 5 rcurveline
          -3 18 -2 18 18 vvcurveto
          27 3 26 9 26 vhcurveto
          -11 9 -68 -15 -92 -9 -69 -2 rlinecurve
          -4 10 -2 7 -3 10 -21 -4 rcurveline
          3 -21 2 -33 -3 -53 -10 -151 rcurveline
          12 -9 rlineto
          12 22 23 5 25 hhcurveto
          88 53 -49 -88 -25 -3 -26 -10 -24 -16 callsubr
          125 -73 62 -125 3 vhcurveto
          -26 -6 -24 -11 -23 -13 11 131 rcurveline
          4 5 rlineto
          0 14 -7 9 -3 vhcurveto
          50 53 2 5 50 hvcurveto
          endchar
        </CharString>
        <CharString name="four">
          -39 0 192 -183 -21 151 53 344 -20 hstemhm
          259 71 hintmask 01111000
          330 350 rmoveto
          53 4 76 9 53 vhcurveto
          -8 4 -23 -11 -25 -8 -25 -6 rlinecurve
          -72 -144 -72 -94 -105 -120 4 -14 rcurveline
          241 hlineto
          -51 -2 -13 -5 -41 vhcurveto
          -21 -5 -38 -12 -20 -9 3 -20 rcurveline
          hintmask 10011000
          7 36 39 5 36 hhcurveto
          34 33 -2 -3 34 hvcurveto
          4 20 -16 4 -21 7 -14 7 rlinecurve
          hintmask 01111000
          -5 37 -3 16 53 vvcurveto
          22 26 0 -3 35 hvcurveto
          4 2 rlineto
          36 2 21 7 35 vhcurveto
          -16 3 rlineto
          -41 -17 -17 -3 -47 hhcurveto
          -1 35 0 21 105 vvcurveto
          -76 80 rmoveto
          7 hlineto
          -3 -238 -54 1 -47 3 -39 4 rlinecurve
          51 71 48 78 37 81 rrcurveto
          endchar
        </CharString>
        <CharString name="g">
          -22 -12 70 -70 237 -207 -21 474 62 hstemhm
          45 85 223 61 hintmask 10011100
          269 58 rmoveto
          -116 -23 97 116 55 13 68 27 49 hvcurveto
          -97 callgsubr
          40 13 45 29 32 28 rrcurveto
          hintmask 00111100
          11 -17 8 -22 5 -22 rrcurveto
          21 hlineto
          4 80 6 64 8 80 7 9 8 8 7 6 -10 18 rcurveline
          hintmask 01011100
          -25 -38 -42 -12 -45 hhcurveto
          -11 -12 1 1 -12 hvcurveto
          -3 -21 24 -4 23 -5 21 -7 rlinecurve
          2 -17 0 -15 1 -17 2 -58 rcurveline
          hintmask 10011100
          -15 -25 -30 -10 -30 hhcurveto
          endchar
        </CharString>
        <CharString name="germandbls">
          319 -12 69 -56 -21 491 62 hstemhm
          74 60 167 59 135 60 167 59 hintmask 10111110
          190 -12 rmoveto
          -54 callsubr
          421 hmoveto
          -54 callsubr
          endchar
        </CharString>
        <CharString name="grave">
          -314 579 -21 hstem
          189 558 rmoveto
          11 18 -51 35 -51 62 -30 54 rlinecurve
          -12 1 -20 0 -11 -2 -9 -11 -15 -34 -1 87 callgsubr
        </CharString>
        <CharString name="grave.cap">
          -299 752 20 callsubr
          hstem
          207 -59 callgsubr
          endchar
        </CharString>
        <CharString name="greater">
          36 76 -21 394 -20 hstem
          484 286 rmoveto
          -45 14 -50 18 -91 34 -85 32 -65 28 -72 37 -24 -46 rcurveline
          5 -10 359 -139 rlineto
          -4 vlineto
          -359 -138 -5 -10 26 -47 72 36 60 26 88 35 rlinecurve
          75 30 61 21 64 19 rrcurveto
          endchar
        </CharString>
        <CharString name="guillemotleft">
          -101 -2 callsubr
          68 160 rmoveto
          97 128 -19 13 -49 -58 -53 -41 -66 -36 rlinecurve
          -20 vlineto
          67 -41 47 -45 54 -57 20 14 rcurveline
          endchar
        </CharString>
        <CharString name="guillemotright">
          -101 132 -21 328 -20 hstem
          194 11 callsubr
          -274 -141 rmoveto
          20 -14 54 57 47 45 67 41 rlinecurve
          20 vlineto
          -66 36 -53 41 -49 58 -17 -13 rcurveline
          95 -128 rlineto
          endchar
        </CharString>
        <CharString name="guilsinglleft">
          -267 -2 callsubr
          endchar
        </CharString>
        <CharString name="guilsinglright">
          -267 132 -21 328 -20 hstem
          28 11 callsubr
          endchar
        </CharString>
        <CharString name="h">
          104 -56 callsubr
          265 36 220 -25 callsubr
          235 74 hintmask 10110110
          418 488 -11 callsubr
          hintmask 10101110
          -100 callgsubr
          hintmask 01110110
          -30 callsubr
          hintmask 10110110
          28 callsubr
          hintmask 01110110
          -88 callsubr
          -27 7 -30 -17 callsubr
          -5 30 -5 69 105 vvcurveto
          47 vlineto
          72 5 101 5 31 -79 callsubr
          hintmask 10101110
          -78 callgsubr
          endchar
        </CharString>
        <CharString name="hbar">
          104 -56 callsubr
          265 36 83 30 -23 -21 58 -20 113 -25 callsubr
          235 74 hintmask 0001000000000000
          481 390 rmoveto
          122 2 rlineto
          5 vlineto
          hintmask 0000110000000000
          -7 callgsubr
          -38 -1 -25 -1 -480 -17 49 callgsubr
          hintmask 1010001011000000
          278 109 -11 callsubr
          hintmask 1010000111000000
          -100 callgsubr
          hintmask 0110001011000000
          -30 callsubr
          hintmask 1010001011000000
          28 callsubr
          hintmask 0110001011000000
          -88 callsubr
          -27 7 -30 -17 callsubr
          -5 30 -5 69 105 vvcurveto
          47 vlineto
          72 5 101 5 31 -79 callsubr
          hintmask 1010000111000000
          -78 callgsubr
          endchar
        </CharString>
        <CharString name="hyphen">
          -228 243 45 -31 -21 62 -20 hstemhm
          hintmask 01100000
          260 293 rmoveto
          -8 5 rlineto
          hintmask 10000000
          -7 -59 -54 -3 -59 hhcurveto
          -46 hlineto
          -6 -46 rlineto
          hintmask 01100000
          9 -6 217 15 rlineto
          endchar
        </CharString>
        <CharString name="i">
          -58 callgsubr
        </CharString>
        <CharString name="iacute">
          -31 callgsubr
          70 -21 14 callsubr
          75 hintmask 00001000
          290 -24 callgsubr
          hintmask 10100100
          91 -275 -78 callsubr
          hintmask 10010100
          -36 callgsubr
          -4 30 -5 84 47 callsubr
          endchar
        </CharString>
        <CharString name="icircumflex">
          -31 callgsubr
          66 -21 185 4 callgsubr
          75 hintmask 10100010
          -68 callgsubr
          hintmask 10010010
          -100 callgsubr
          hintmask 01100010
          -88 callsubr
          -27 7 -30 -17 callgsubr
          30 -5 84 47 callsubr
          hintmask 00001100
          -31 361 -66 callsubr
        </CharString>
        <CharString name="idieresis">
          -31 callgsubr
          112 21 callsubr
          117 75 hintmask 00001100
          130 661 -102 callgsubr
          171 hmoveto
          -107 callgsubr
          hintmask 10100010
          -109 -378 -78 callsubr
          hintmask 10010010
          -100 callgsubr
          hintmask 01100010
          -88 callsubr
          -27 7 -30 -17 callgsubr
          30 -5 84 47 callsubr
          endchar
        </CharString>
        <CharString name="igrave">
          -31 callgsubr
          70 -21 14 callsubr
          75 hintmask 10100100
          -68 callgsubr
          hintmask 10010100
          -36 callgsubr
          -4 30 -5 84 47 callsubr
          hintmask 00001000
          27 275 rmoveto
          11 18 -51 35 -51 62 -30 54 rlinecurve
          -12 1 -20 0 -11 -2 -9 -11 -15 -34 -1 87 callgsubr
        </CharString>
        <CharString name="ij">
          91 -125 -21 159 68 callsubr
          234 75 hintmask 01010100
          -68 callgsubr
          hintmask 01001100
          -100 callgsubr
          hintmask 00110100
          -88 callsubr
          -27 7 -30 -17 callgsubr
          30 -5 84 47 callsubr
          hintmask 10001010
          234 -160 -60 callgsubr
          hintmask 10010010
          -72 callgsubr
          4 -27 4 -97 -81 vvcurveto
          endchar
        </CharString>
        <CharString name="itilde">
          -31 callgsubr
          87 8 callsubr
          117 75 hintmask 00000110
          42 603 rmoveto
          19 14 17 5 22 hhcurveto
          hintmask 00001010
          32 62 -31 32 hhcurveto
          37 18 31 30 23 34 -17 11 rcurveline
          -18 -15 -17 -6 -23 hhcurveto
          -35 -41 13 18 -28 hvcurveto
          -43 -15 -40 -30 -29 -37 rrcurveto
          hintmask 10100001
          168 -331 -78 callsubr
          hintmask 10010001
          -100 callgsubr
          hintmask 01100001
          -88 callsubr
          -27 7 -30 -17 callgsubr
          30 -5 84 47 callsubr
          endchar
        </CharString>
        <CharString name="j">
          -49 callsubr
        </CharString>
        <CharString name="jcircumflex">
          -218 -125 -21 667 30 callsubr
          66 -21 185 4 callgsubr
          75 hintmask 10100100
          117 123 -60 callgsubr
          hintmask 11000100
          -72 callgsubr
          4 -27 4 -97 -81 vvcurveto
          hintmask 00011000
          31 361 -66 callsubr
        </CharString>
        <CharString name="k">
          11 13 68 callsubr
          0 162 -63 callgsubr
          hintmask 01100100
          -88 callsubr
          -27 34 callsubr
          -26 3 rlinecurve
          -3 23 -4 58 -2 89 27 22 30 24 26 23 rrcurveto
          60 -115 19 -68 -35 vvcurveto
          -24 -7 -11 -7 -7 vhcurveto
          5 -17 rlineto
          4 19 30 1 19 hhcurveto
          hintmask 10011000
          -2 callgsubr
          hintmask 10101000
          69 callgsubr
          hintmask 10011000
          50 callsubr
          endchar
        </CharString>
        <CharString name="kcommaaccent">
          11 -194 -21 181 -20 67 68 callsubr
          0 162 hintmask 00101010
          -68 callgsubr
          hintmask 00100110
          -100 callgsubr
          hintmask 00011001
          -88 callsubr
          -27 7 -30 -17 callsubr
          -3 23 -4 58 -2 89 27 22 30 24 26 23 rrcurveto
          60 -115 19 -68 -35 vvcurveto
          -24 -7 -11 -7 -7 vhcurveto
          5 -17 rlineto
          4 19 30 1 19 hhcurveto
          hintmask 00100110
          -2 callgsubr
          hintmask 00101010
          69 callgsubr
          hintmask 00100110
          50 callsubr
          hintmask 11000000
          147 -326 -55 callgsubr
        </CharString>
        <CharString name="kgreenlandic">
          16 6 -21 36 -21 536 4 callgsubr
          75 hintmask 10110000
          192 206 rmoveto
          7 13 13 28 20 27 89 -144 rcurveline
          27 -44 41 -64 -33 vvcurveto
          9 -4 51 12 35 7 53 2 rlinecurve
          26 vlineto
          -16 -31 4 4 -13 hvcurveto
          -22 29 -38 63 -28 44 -108 165 rcurveline
          54 44 51 48 27 hhcurveto
          11 18 -5 -6 9 hvcurveto
          2 -24 0 -12 -24 vvcurveto
          24 hlineto
          3 53 11 35 33 43 rrcurveto
          15 vlineto
          11 -30 -33 7 -30 hhcurveto
          -76 -52 -108 -130 -40 -82 -5 1 rcurveline
          30 vlineto
          59 5 111 9 58 vhcurveto
          -7 5 -52 -12 -46 -7 -52 -3 rlinecurve
          -23 vlineto
          17 24 -3 -6 18 hvcurveto
          7 -68 2 -52 -59 vvcurveto
          -92 vlineto
          -54 -5 -90 -5 -34 vhcurveto
          -19 -4 -25 -5 -18 -23 callsubr
          hintmask 01110000
          5 37 32 3 37 hhcurveto
          38 48 -2 -5 40 hvcurveto
          3 25 -20 6 -46 8 -18 2 rlinecurve
          -4 33 -4 83 56 vvcurveto
          endchar
        </CharString>
        <CharString name="l">
          93 callsubr
          532 -25 callsubr
          hintmask 10011000
          -28 callgsubr
          hintmask 10101000
          -6 -37 -50 -2 -37 hhcurveto
          hintmask 10011000
          -22 callgsubr
          hintmask 01011000
          82 callsubr
          endchar
        </CharString>
        <CharString name="ldot">
          93 callsubr
          269 9 callgsubr
          193 -25 callsubr
          hintmask 10000110
          -28 callgsubr
          hintmask 10001010
          -6 -37 -50 -2 -37 hhcurveto
          hintmask 10000110
          -22 callgsubr
          hintmask 01000110
          82 callsubr
          hintmask 00110000
          -33 309 -72 callsubr
        </CharString>
        <CharString name="less">
          36 76 -21 394 -20 hstem
          52 222 rmoveto
          64 -19 61 -21 75 -30 88 -35 60 -26 72 -36 26 47 rcurveline
          -5 10 -359 138 rlineto
          4 vlineto
          359 139 5 10 -24 46 -72 -37 -65 -28 -85 -32 rlinecurve
          -91 -34 -50 -18 -45 87 callgsubr
        </CharString>
        <CharString name="logicalnot">
          36 103 -21 156 49 9 -20 hstemhm
          447 47 hintmask 11010000
          494 82 rmoveto
          5 6 rlineto
          -2 53 -3 23 120 vvcurveto
          -19 callsubr
          hintmask 10110000
          -8 callsubr
          rlineto
          hintmask 11010000
          8 -7 rlineto
          388 -147 hlineto
          endchar
        </CharString>
        <CharString name="lslash">
          93 callsubr
          532 -25 callsubr
          hintmask 10011000
          -36 callsubr
          27 -4 106 101 vvcurveto
          21 10 38 callgsubr
          -34 -18 rcurveline
          1 75 3 79 4 24 28 3 33 6 28 -3 callgsubr
          hintmask 10101000
          -6 -37 -50 -2 -37 hhcurveto
          hintmask 10011000
          -10 callsubr
          -12 vlineto
          -95 -48 4 -10 1 -11 2 -11 rlinecurve
          4 -3 17 12 33 20 34 17 rlinecurve
          -1 -21 callsubr
          hintmask 01011000
          82 callsubr
          endchar
        </CharString>
        <CharString name="m">
          210 -56 callsubr
          478 -20 63 -20 76 callsubr
          157 145 hintmask 10101100
          551 33 rmoveto
          -21 -3 -26 -5 -24 -7 4 -26 rcurveline
          hintmask 01101100
          82 callgsubr
          37 42 -2 -5 -30 callgsubr
          -25 6 -27 5 -24 3 rlinecurve
          -16 75 -21 252 75 vvcurveto
          14 1 27 2 16 vhcurveto
          22 4 25 5 22 6 -3 26 rcurveline
          hintmask 10110100
          -6 -39 -59 -5 -39 hhcurveto
          -29 -35 1 6 -29 hvcurveto
          -2 -17 rlineto
          11 -3 16 -9 -12 vvcurveto
          -84 -277 -7 -36 -13 vvcurveto
          -7 -2 -22 75 rlineto
          -46 172 -16 57 3 callsubr
          -29 -35 -1 -29 hhcurveto
          hintmask 10101100
          -40 -57 5 6 -39 hvcurveto
          -3 -26 24 -7 29 -5 24 -4 rlinecurve
          -93 -456 -19 -3 -27 -7 -18 -6 47 callgsubr
          hintmask 01101100
          4 29 49 4 29 hhcurveto
          25 29 -1 -4 24 hvcurveto
          4 17 rlineto
          -30 16 -5 26 33 vvcurveto
          34 4 87 12 86 vhcurveto
          25 186 4 1 rlineto
          43 -130 57 -205 -90 vvcurveto
          -10 1 -8 -1 -8 vhcurveto
          12 -8 20 24 44 29 28 9 rlinecurve
          3 40 20 98 87 256 rrcurveto
          3 hlineto
          19 -135 12 -217 1 -93 rrcurveto
          endchar
        </CharString>
        <CharString name="macron">
          -240 619 49 -29 -21 56 -20 hstemhm
          hintmask 10000000
          274 667 rmoveto
          -8 5 rlineto
          -3 -34 -40 -1 -34 hhcurveto
          -32 -39 1 2 -33 hvcurveto
          hintmask 01100000
          -45 3 -9 -50 9 -6 256 3 rlineto
          endchar
        </CharString>
        <CharString name="mu">
          15 -198 -21 225 -21 500 -20 hstemhm
          90 46 -46 63 208 70 hintmask 11101100
          361 207 rmoveto
          -51 -22 -83 -89 -55 hhcurveto
          -48 0 57 48 95 11 115 24 98 hvcurveto
          -6 5 -27 -7 -36 -5 -29 -3 rlinecurve
          -4 -3 4 -26 3 -44 -1 -66 rlinecurve
          -4 -188 -7 -211 -2 -76 -10 -68 rlinecurve
          9 -7 25 9 25 6 26 5 rlinecurve
          3 3 rlineto
          hintmask 11110100
          -13 56 -8 67 72 vvcurveto
          -8 7 20 -6 10 hhcurveto
          64 21 81 85 39 55 4 -1 rcurveline
          -50 -3 -58 -8 -50 vhcurveto
          7 -2 48 11 39 6 48 2 rlinecurve
          21 vlineto
          -15 -24 3 5 -15 hvcurveto
          -6 61 -1 49 91 vvcurveto
          155 13 67 7 24 vhcurveto
          -6 5 -29 -7 -38 -5 -31 73 callsubr
          -21 10 -39 -203 vvcurveto
          endchar
        </CharString>
        <CharString name="multiply">
          36 71 -21 375 -20 hstem
          427 425 rmoveto
          -8 -1 -141 -151 -61 64 -47 50 -33 37 rlinecurve
          -8 1 -38 -35 153 -151 -62 -63 -53 -44 -48 -43 rlinecurve
          28 -39 rlineto
          11 hlineto
          158 155 158 -155 rlineto
          11 hlineto
          28 39 -49 44 -52 42 -63 64 rlinecurve
          154 151 rlineto
          endchar
        </CharString>
        <CharString name="n">
          32 callgsubr
          71 callsubr
          hintmask 01011100
          199 33 -29 callgsubr
          hintmask 10011100
          -43 callgsubr
          hintmask 01101100
          -53 callsubr
          hintmask 01011100
          -58 callsubr
          endchar
        </CharString>
        <CharString name="nacute">
          32 callgsubr
          67 -21 71 callsubr
          hintmask 01010110
          199 33 -29 callgsubr
          hintmask 10010110
          -43 callgsubr
          hintmask 01100110
          -53 callsubr
          hintmask 01010110
          -58 callsubr
          hintmask 00001000
          312 634 -67 callsubr
          endchar
        </CharString>
        <CharString name="nbspace">
          -334 endchar
        </CharString>
        <CharString name="nine">
          -39 6 -21 212 55 222 62 hstem
          32 88 190 89 vstem
          310 325 rmoveto
          -132 -89 -113 -108 -77 vhcurveto
          13 -18 rlineto
          143 65 130 145 163 vvcurveto
          112 -62 66 -112 vhcurveto
          -71 -20 -93 -84 -29 -67 rrcurveto
          -116 76 -52 116 vhcurveto
          19 21 16 14 22 16 rrcurveto
          7 vlineto
          -2 -10 -10 -1 -10 hhcurveto
          -82 -49 41 82 30 4 17 11 28 hvcurveto
          20 17 26 4 26 hhcurveto
          79 27 -70 -79 hvcurveto
          endchar
        </CharString>
        <CharString name="ntilde">
          32 callgsubr
          84 69 -38 38 31 -20 71 callsubr
          hintmask 0000011000000000
          166 603 -16 callgsubr
          hintmask 0101000110000000
          51 -581 -29 callgsubr
          hintmask 1001000110000000
          -43 callgsubr
          hintmask 0110000110000000
          -53 callsubr
          hintmask 0101000110000000
          -58 callsubr
          endchar
        </CharString>
        <CharString name="numbersign">
          36 -71 -21 234 53 122 55 220 -20 hstem
          380 372 rmoveto
          9 77 10 64 14 76 80 callgsubr
          -215 -37 1 -38 1 -34 2 rlinecurve
          9 75 10 63 14 75 80 callgsubr
          -209 -28 1 -24 1 -15 2 rlinecurve
          -45 4 -10 -53 8 -6 108 -3 -16 -129 -30 1 -25 1 -16 2 rlinecurve
          -46 4 -10 -52 8 -7 112 -3 rlineto
          -4 vlineto
          -9 -77 -8 -55 -14 -76 79 callgsubr
          232 108 -3 -9 -77 -8 -55 -14 -76 rlinecurve
          79 callgsubr
          228 121 -3 10 49 -7 5 -24 -1 -44 1 -50 1 rlinecurve
          15 131 127 -3 10 48 -7 6 -25 -1 -46 1 -52 1 rlinecurve
          -172 -178 rmoveto
          16 130 108 -3 -16 -131 -36 1 -38 1 -34 2 rlinecurve
          endchar
        </CharString>
        <CharString name="o">
          26 callsubr
          hstem
          22 callgsubr
          vstem
          -96 callsubr
          endchar
        </CharString>
        <CharString name="oacute">
          -50 callsubr
          173 195 -67 callsubr
          endchar
        </CharString>
        <CharString name="ocircumflex">
          26 callsubr
          42 -21 185 -47 callsubr
          20 172 -66 callsubr
        </CharString>
        <CharString name="odieresis">
          26 callsubr
          88 -21 111 -47 callsubr
          -18 189 -96 callgsubr
        </CharString>
        <CharString name="oe">
          170 -12 70 197 36 186 -20 31 36 9 -20 hstemhm
          42 93 221 75 -75 234 hintmask 11110110
          431 250 rmoveto
          29 callgsubr
          hintmask 11110101
          -57 callsubr
          -26 -7 -38 hhcurveto
          hintmask 11110110
          -9 callsubr
          hintmask 11101110
          84 callsubr
          hintmask 11110110
          -5 -51 -109 -4 -50 hhcurveto
          hintmask 11101110
          -59 -23 9 -43 hhcurveto
          -163 -18 -132 -152 -164 vvcurveto
          -108 75 -84 108 -19 vhcurveto
          56 11 57 26 40 41 rrcurveto
          3 hlineto
          -52 25 49 -26 68 30 callgsubr
          -65 241 rmoveto
          -47 -10 -92 -119 vvcurveto
          -88 -5 -29 -18 -25 vhcurveto
          -11 -16 -24 -3 -21 hhcurveto
          -93 -44 87 93 87 17 87 63 61 hvcurveto
          11 18 27 4 22 hhcurveto
          32 22 -4 -12 30 hvcurveto
          endchar
        </CharString>
        <CharString name="ograve">
          -50 callsubr
          56 86 rmoveto
          11 18 -51 35 -51 62 -30 54 rlinecurve
          -12 1 -20 0 -11 -2 -9 -11 -15 -34 -1 87 callgsubr
        </CharString>
        <CharString name="one">
          -39 -56 callsubr
          536 -20 hstemhm
          213 74 hintmask 10110000
          204 30 rmoveto
          -17 -4 -29 -9 -17 -6 2 -19 rcurveline
          hintmask 01110000
          5 35 35 3 35 hhcurveto
          34 34 -2 -4 34 hvcurveto
          hintmask 10110000
          3 19 -16 7 -26 9 -17 4 rlinecurve
          -4 30 -3 88 69 vvcurveto
          55 vlineto
          83 5 123 9 53 vhcurveto
          -4 2 rlineto
          -9 -11 -1 -2 -8 hvcurveto
          -37 -37 -46 -25 -51 -12 rrcurveto
          -2 -4 -1 -9 -6 vvcurveto
          2 -2 rlineto
          76 hlineto
          2 -40 1 -63 -60 vvcurveto
          -55 vlineto
          -69 -5 -88 -4 -33 vhcurveto
          endchar
        </CharString>
        <CharString name="onehalf">
          316 -21 -21 627 -20 101 -20 58 -20 hstem
          133 65 490 81 vstem
          151 -42 -62 callgsubr
          516 109 -61 callsubr
        </CharString>
        <CharString name="onequarter">
          85 callgsubr
          428 -20 101 -20 58 -20 hstemhm
          133 65 466 65 hintmask 10111111
          -25 callgsubr
          hintmask 11011111
          29 callsubr
          hintmask 10111111
          6 callgsubr
          -578 -198 -62 callgsubr
          535 33 23 callgsubr
        </CharString>
        <CharString name="onesuperior">
          -211 366 -21 320 -20 101 -20 hstem
          133 65 vstem
          125 378 -75 callsubr
          endchar
        </CharString>
        <CharString name="ordfeminine">
          -104 259 69 286 52 26 -20 hstem
          38 71 174 63 vstem
          38 414 rmoveto
          -67 35 -88 67 vhcurveto
          50 21 58 65 32 44 rrcurveto
          3 hlineto
          -41 -2 -45 -7 -41 vhcurveto
          6 -3 43 9 30 5 39 2 rlinecurve
          18 vlineto
          -13 -16 2 5 -11 hvcurveto
          -5 40 -1 49 40 vvcurveto
          142 9 73 9 43 vhcurveto
          -17 5 -4 -14 -8 -17 -8 -12 rlinecurve
          12 -43 -28 5 -46 hhcurveto
          -105 -36 -67 -106 -110 vvcurveto
          71 37 rmoveto
          45 8 56 18 42 vhcurveto
          16 17 18 4 24 hhcurveto
          26 33 -7 -13 24 hvcurveto
          4 -24 2 -26 -105 vvcurveto
          -38 -15 -66 -73 -40 hhcurveto
          -39 -14 84 39 hvcurveto
          endchar
        </CharString>
        <CharString name="ordmasculine">
          -119 259 54 300 53 hstem
          32 71 189 71 vstem
          32 427 rmoveto
          -96 70 -72 96 vhcurveto
          96 39 69 101 100 vvcurveto
          104 -53 63 -104 vhcurveto
          -106 -27 -68 -106 -106 vvcurveto
          152 186 rmoveto
          78 30 -79 -78 -41 -6 -46 -20 -36 hvcurveto
          -13 -14 -20 -7 -20 hhcurveto
          -71 -38 86 71 40 8 47 19 37 hvcurveto
          13 14 21 6 19 hhcurveto
          endchar
        </CharString>
        <CharString name="oslash">
          12 -66 -21 75 61 423 61 88 71 callgsubr
          hintmask 10010000
          134 -87 rmoveto
          187 493 22 callsubr
          -95 -250 rcurveline
          -22 -57 -39 -93 -25 -56 6 -9 11 -10 9 -5 rrcurveto
          hintmask 01101100
          -87 299 -100 callsubr
          endchar
        </CharString>
        <CharString name="otilde">
          26 callsubr
          63 69 -38 38 31 71 callgsubr
          hintmask 11000110
          -96 callsubr
          hintmask 00011000
          -120 131 -12 callsubr
          hintmask 00101000
          -89 callsubr
          endchar
        </CharString>
        <CharString name="p">
          -54 -56 callsubr
          232 34 225 35 14 callsubr
          75 172 92 hintmask 10111100
          201 33 rmoveto
          -4 29 -5 99 96 vvcurveto
          137 1 29 6 57 vhcurveto
          8 21 20 48 callsubr
          56 callgsubr
          hvcurveto
          -50 -109 -7 -73 hhcurveto
          -25 vlineto
          22 19 -4 -9 24 hvcurveto
          3 -27 6 -86 -108 vvcurveto
          -97 -6 -102 -4 -28 77 callgsubr
          hintmask 01111100
          82 callgsubr
          hintmask 10111100
          78 callgsubr
          -32 6 -28 3 rlinecurve
          endchar
        </CharString>
        <CharString name="paragraph">
          -2 -94 -21 739 34 hstem
          -5 245 65 77 vstem
          305 125 rmoveto
          1 -54 -8 -59 -21 -52 rrcurveto
          -5 -10 -25 -2 -11 hhcurveto
          -13 -16 1 9 -10 hvcurveto
          -7 -1 -11 -18 -14 -16 -17 -16 rlinecurve
          -16 1 14 -11 16 hhcurveto
          107 87 134 107 14 hvcurveto
          199 vlineto
          135 7 114 4 34 vhcurveto
          10 30 39 6 29 hhcurveto
          25 vlineto
          -92 -136 9 -62 hhcurveto
          -122 -84 -42 -122 -123 120 -76 123 7 8 0 1 7 hvcurveto
          2 14 rlineto
          -17 30 -5 69 70 vvcurveto
          43 2 52 6 43 vhcurveto
          2 7 7 1 9 hhcurveto
          8 10 -1 -2 7 hvcurveto
          7 -73 2 -45 -174 vvcurveto
          endchar
        </CharString>
        <CharString name="parenleft">
          -217 61 callsubr
          hstem
          48 72 vstem
          48 262 rmoveto
          -185 76 -185 126 -107 vhcurveto
          10 10 rlineto
          -93 127 -47 176 164 vvcurveto
          164 47 148 93 127 vhcurveto
          -10 10 rlineto
          -126 -107 -76 -160 -182 vvcurveto
          endchar
        </CharString>
        <CharString name="parenright">
          -217 61 callsubr
          hstem
          177 72 vstem
          249 262 rmoveto
          182 -76 160 -126 107 vhcurveto
          -10 -10 rlineto
          93 -127 47 -148 -164 vvcurveto
          -164 -47 -176 -93 -127 vhcurveto
          10 -10 rlineto
          126 107 76 185 185 vvcurveto
          endchar
        </CharString>
        <CharString name="percent">
          230 -79 -21 106 -21 518 37 30 -20 48 -20 hstem
          106 143 248 143 vstem
          34 389 57 callsubr
          -8 45 -21 52 -33 31 3 3 rcurveline
          -14 46 83 -22 48 hhcurveto
          27 23 5 20 19 hvcurveto
          4 -1 -30 -51 -31 -50 -33 -50 rlinecurve
          -175 -274 -33 -51 -53 -70 -36 -49 rlinecurve
          8 -12 18 -14 13 -6 rrcurveto
          5 hlineto
          305 478 58 90 57 84 30 43 rlinecurve
          -3 3 -20 -6 -25 -3 -20 -1 rlinecurve
          -6 -10 rlineto
          -32 -19 -31 -6 -36 -123 -93 30 -59 89 callgsubr
          391 -242 57 callsubr
          107 -20 -61 55 -60 89 callgsubr
          -247 111 rmoveto
          -45 17 -27 67 57 vvcurveto
          57 27 67 45 17 vhcurveto
          46 -17 25 -67 -57 vvcurveto
          -57 -25 -67 -46 -17 vhcurveto
          391 -242 rmoveto
          -45 17 -27 67 57 vvcurveto
          57 27 67 45 17 vhcurveto
          46 -17 25 -67 -57 vvcurveto
          -57 -25 -67 -46 -17 vhcurveto
          endchar
        </CharString>
        <CharString name="period">
          -302 6 62 callsubr
          160 46 -72 callsubr
        </CharString>
        <CharString name="periodcentered">
          -302 244 62 callsubr
          160 284 -72 callsubr
        </CharString>
        <CharString name="plus">
          36 12 -21 231 52 211 88 callsubr
          268 rmoveto
          -19 callsubr
          -37 -37 0 1 -37 hvcurveto
          1 vlineto
          114 3 39 2 53 vhcurveto
          -5 6 -47 -9 rlineto
          -203 55 callsubr
          -224 86 callsubr
          66 103 vvcurveto
          193 hlineto
          endchar
        </CharString>
        <CharString name="plusminus">
          36 0 49 218 52 166 88 callsubr
          313 rmoveto
          -19 callsubr
          -37 -37 0 1 -37 hvcurveto
          1 vlineto
          64 2 44 3 53 vhcurveto
          -5 6 -47 -9 rlineto
          -158 55 callsubr
          -179 86 callsubr
          51 73 vvcurveto
          193 hlineto
          1 -221 rmoveto
          -19 callsubr
          -8 callsubr
          61 callgsubr
          endchar
        </CharString>
        <CharString name="q">
          12 -156 -21 110 64 -8 60 423 61 26 callgsubr
          hintmask 10111100
          42 212 rmoveto
          -126 81 -89 122 -8 vhcurveto
          -41 -17 -38 -27 -24 -25 17 -16 rcurveline
          hintmask 11011100
          20 26 27 9 33 hhcurveto
          72 97 -51 -43 59 hvcurveto
          22 -16 22 41 27 38 36 26 rlinecurve
          -12 18 -21 -12 -15 -7 -23 -9 rlinecurve
          -69 19 -89 59 -66 1 rrcurveto
          127 56 72 121 136 -87 callsubr
          hintmask 10111100
          -69 callgsubr
          endchar
        </CharString>
        <CharString name="question">
          -179 9 -21 646 62 hstem
          239 96 vstem
          140 180 rmoveto
          26 2 3 65 4 56 4 49 rlinecurve
          61 61 46 51 51 73 rrcurveto
          108 -48 51 -108 vhcurveto
          -64 -19 -98 5 callgsubr
          20 20 4 22 hhcurveto
          51 37 -23 -51 -60 -31 -73 -89 -89 hvcurveto
          -19 vlineto
          86 -270 -72 callsubr
        </CharString>
        <CharString name="questiondown">
          -179 -215 62 639 -20 hstem
          0 96 vstem
          128 -1 callsubr
          -3 -65 -4 -56 -4 -49 rlinecurve
          -61 -61 -46 -51 -51 -73 rrcurveto
          -108 48 -51 108 vhcurveto
          64 19 98 70 66 vvcurveto
          14 -10 14 -16 1 vhcurveto
          -15 -16 -14 -12 -19 -12 -1 -7 rcurveline
          8 -7 2 -6 -14 vvcurveto
          -9 -4 -20 -3 -5 vhcurveto
          -10 -20 -20 -4 -22 hhcurveto
          -51 -37 23 51 60 31 73 89 89 hvcurveto
          19 vlineto
          endchar
        </CharString>
        <CharString name="quotedbl">
          -199 15 callgsubr
          148 -217 -4 callsubr
          endchar
        </CharString>
        <CharString name="quotedblbase">
          -153 -15 callgsubr
          153 36 callgsubr
          -3 -38 -23 -44 -30 -29 10 -11 rcurveline
          62 36 52 67 69 vvcurveto
          endchar
        </CharString>
        <CharString name="quotedblleft">
          -148 -21 callgsubr
          153 hmoveto
          -37 callsubr
          endchar
        </CharString>
        <CharString name="quotedblright">
          -148 51 callsubr
          313 616 -52 callsubr
          -153 36 callgsubr
          -2 -38 -28 -56 -26 -31 10 -10 rcurveline
          58 39 56 76 70 vvcurveto
          endchar
        </CharString>
        <CharString name="quoteleft">
          -301 -21 callgsubr
          endchar
        </CharString>
        <CharString name="quoteright">
          -301 51 callsubr
          160 616 -52 callsubr
          endchar
        </CharString>
        <CharString name="quotesinglbase">
          -306 -15 callgsubr
          endchar
        </CharString>
        <CharString name="quotesingle">
          -334 15 callgsubr
          endchar
        </CharString>
        <CharString name="r">
          12 -56 callsubr
          491 35 14 callsubr
          75 169 92 hintmask 01111000
          -90 callsubr
          hintmask 10111000
          28 callsubr
          hintmask 01111000
          -88 callsubr
          -27 7 -29 -17 callsubr
          endchar
        </CharString>
        <CharString name="rcaron">
          12 -56 callsubr
          491 35 49 -21 185 4 callgsubr
          75 169 92 hintmask 01100110
          -90 callsubr
          hintmask 10100110
          28 callsubr
          hintmask 01100110
          -88 callsubr
          -27 7 -29 -17 callsubr
          hintmask 00011000
          -72 706 12 callsubr
        </CharString>
        <CharString name="rcommaaccent">
          12 41 callsubr
          491 35 14 callsubr
          75 169 92 hintmask 00011110
          -90 callsubr
          hintmask 00101110
          28 callsubr
          hintmask 00011110
          -88 callsubr
          -27 7 -29 -17 callsubr
          hintmask 11000000
          137 -117 -55 callgsubr
        </CharString>
        <CharString name="registered">
          -80 304 34 69 201 -18 106 -36 36 hstemhm
          21 36 97 42 51 46 82 38 hintmask 11011111
          21 500 rmoveto
          -109 87 -87 109 109 87 87 109 109 -87 87 -109 -109 -87 -87 -109 vhcurveto
          36 hmoveto
          90 70 70 90 90 68 -70 -90 -90 -68 -72 -90 -90 -70 72 90 vhcurveto
          93 -80 rmoveto
          -8 -1 -10 -2 -7 -2 rrcurveto
          -11 vlineto
          2 16 14 1 17 hhcurveto
          16 17 -1 -2 15 hvcurveto
          1 11 -22 5 rlineto
          -2 9 -1 41 37 vvcurveto
          48 0 13 1 19 vhcurveto
          hintmask 10101111
          2 5 7 1 5 hhcurveto
          24 9 -11 -23 -26 -16 -13 -23 hvcurveto
          -4 hlineto
          -1 -11 rlineto
          5 5 -1 -2 5 hvcurveto
          19 -38 7 -24 -13 vvcurveto
          -6 -1 -6 -5 -4 vhcurveto
          2 -7 rlineto
          hintmask 11011111
          1 8 14 1 14 hhcurveto
          14 15 -1 -2 14 hvcurveto
          11 vlineto
          -20 5 -43 88 rlineto
          24 10 13 18 25 vvcurveto
          40 -33 7 -41 vhcurveto
          -23 -40 -3 -27 hhcurveto
          -12 vlineto
          8 5 -1 -3 9 hvcurveto
          2 -14 1 -31 -37 vvcurveto
          -37 -3 -40 -1 -10 vhcurveto
          endchar
        </CharString>
        <CharString name="ring">
          -321 558 77 callsubr
          631 vmoveto
          -75 callgsubr
        </CharString>
        <CharString name="ring.cap">
          -321 704 77 callsubr
          777 vmoveto
          -75 callgsubr
        </CharString>
        <CharString name="s">
          -93 1 -26 callsubr
          483 62 hstemhm
          74 60 167 59 hintmask 01111000
          190 -12 rmoveto
          -74 callsubr
          hintmask 10111000
          53 callsubr
          hintmask 01111000
          -11 40 34 -4 44 hhcurveto
          endchar
        </CharString>
        <CharString name="section">
          -47 -115 62 584 -20 93 62 hstem
          85 87 117 87 vstem
          361 131 rmoveto
          26 27 44 62 12 36 rrcurveto
          -20 104 -251 82 105 vvcurveto
          11 4 18 3 5 vhcurveto
          13 13 25 10 27 hhcurveto
          27 23 -4 -8 26 hvcurveto
          35 callsubr
          -33 4 -46 hhcurveto
          -56 -15 -91 -67 -31 -49 rrcurveto
          -129 280 -95 -105 vvcurveto
          -19 -6 -27 -12 -16 vhcurveto
          -130 -197 rmoveto
          -28 -35 7 10 -27 hvcurveto
          -1 -2 40 22 vvcurveto
          -22 hlineto
          -3 -42 -13 -30 -27 -33 rrcurveto
          -14 vlineto
          -15 47 42 -6 49 hhcurveto
          56 15 91 67 31 49 rrcurveto
          129 -280 95 105 vvcurveto
          19 6 27 12 16 vhcurveto
          -14 13 -26 -27 -44 -62 -12 -36 rlinecurve
          20 -104 251 -82 -105 vvcurveto
          -11 -4 -18 -3 -5 vhcurveto
          -13 -13 -25 -10 -27 hhcurveto
          endchar
        </CharString>
        <CharString name="semicolon">
          -302 -118 -21 624 -20 hstem
          160 46 -52 callsubr
          6 callsubr
        </CharString>
        <CharString name="seven">
          -39 10 -21 456 64 27 -20 hstem
          147 30 rmoveto
          -13 -8 -21 -8 -16 -5 5 -20 rcurveline
          33 7 36 3 31 1 36 1 40 -3 36 -4 2 20 rcurveline
          -20 8 -39 10 -21 4 1 95 30 88 52 109 36 75 35 57 41 61 -19 11 rcurveline
          -7 -10 -4 -5 -7 -8 -98 3 -95 4 -96 20 -11 -9 rcurveline
          9 -26 3 -25 -27 vvcurveto
          -18 -2 -18 -3 -18 vhcurveto
          22 -5 5 21 5 19 8 20 rlinecurve
          -5 52 73 0 52 hhcurveto
          13 4 14 6 0 vvcurveto
          3 -4 -64 -100 -83 -131 -44 -85 -10 -105 rlinecurve
          endchar
        </CharString>
        <CharString name="six">
          -39 -15 62 222 55 212 -20 hstem
          76 89 190 88 vstem
          165 196 rmoveto
          132 89 113 108 77 vhcurveto
          -13 18 rlineto
          -143 -65 -130 -145 -163 vvcurveto
          -112 62 -66 112 vhcurveto
          71 20 93 84 29 67 rrcurveto
          116 -76 52 -116 vhcurveto
          -19 -21 -16 -14 -22 -16 rrcurveto
          -7 vlineto
          2 10 10 1 10 hhcurveto
          82 49 -41 -82 -30 -4 -17 -11 -28 hvcurveto
          -20 -17 -26 -4 -26 hhcurveto
          -79 -27 70 79 hvcurveto
          endchar
        </CharString>
        <CharString name="slash">
          -160 -20 -21 747 -20 hstem
          61 -41 rmoveto
          202 532 37 99 25 65 21 48 rlinecurve
          -4 3 -17 -4 -21 -3 -17 59 callsubr
          -114 -299 rcurveline
          -22 -57 -32 -76 -25 -56 10 -12 16 -12 14 -6 rrcurveto
          endchar
        </CharString>
        <CharString name="space">
          -334 endchar
        </CharString>
        <CharString name="sterling">
          -64 5 -21 46 65 157 41 180 65 hstem
          99 80 vstem
          181 293 rmoveto
          50 8 56 23 48 vhcurveto
          21 24 24 5 32 hhcurveto
          33 23 -6 -8 24 hvcurveto
          3 -23 0 -17 57 callgsubr
          -48 -31 3 -49 hhcurveto
          -114 -31 -77 -106 -18 -110 rrcurveto
          -46 hlineto
          -6 -46 9 -6 39 3 rlineto
          -1 vlineto
          -46 12 -59 -13 -48 vhcurveto
          -25 -37 -27 -32 -20 -20 17 -15 rcurveline
          12 12 26 22 22 12 rrcurveto
          108 77 -15 -31 104 hvcurveto
          12 8 rlineto
          -5 21 -2 19 51 callgsubr
          -64 14 -75 8 -65 -1 rrcurveto
          -12 -3 -15 -7 0 vvcurveto
          -3 3 31 46 14 57 4 56 rlinecurve
          148 11 6 42 -8 5 -45 -5 -50 -5 -49 -2 rlinecurve
          endchar
        </CharString>
        <CharString name="t">
          -83 -56 callsubr
          484 37 11 -20 hstemhm
          23 229 -73 73 hintmask 10011000
          441 532 rmoveto
          hintmask 10101000
          -10 -77 -72 -1 -77 hhcurveto
          -77 -60 0 10 -77 hvcurveto
          -5 -17 rlineto
          22 -37 5 -42 -48 vvcurveto
          26 hlineto
          2 26 4 32 8 25 rrcurveto
          9 22 25 5 27 hhcurveto
          10 13 -1 -3 8 hvcurveto
          hintmask 10100100
          4 -46 7 -76 -74 vvcurveto
          -47 -28 callsubr
          -3 0 callsubr
          -33 -6 -19 -23 callsubr
          hintmask 01101000
          -20 callsubr
          -30 5 -26 -27 callsubr
          81 4 88 84 callgsubr
          3 8 15 1 10 hhcurveto
          27 25 2 callsubr
          3 54 6 32 36 40 rrcurveto
          endchar
        </CharString>
        <CharString name="thorn">
          -59 0 166 -153 -21 140 34 225 35 -35 130 8 4 callgsubr
          75 167 92 hintmask 10010111
          192 283 rmoveto
          31 0 34 1 32 vhcurveto
          8 21 21 48 callsubr
          hintmask 01110111
          56 callgsubr
          -19 -27 -1 -1 -29 hvcurveto
          1 29 2 24 2 11 -52 callgsubr
          hintmask 10001011
          -5 -37 -44 -2 -37 hhcurveto
          hintmask 01110111
          -100 callgsubr
          hintmask 10010111
          -88 callsubr
          -27 7 -30 -17 callgsubr
          30 -5 84 47 callsubr
          endchar
        </CharString>
        <CharString name="three">
          -39 -15 62 236 226 -60 60 27 -20 hstemhm
          314 88 hintmask 10111000
          94 536 rmoveto
          -11 -9 rlineto
          7 -23 3 -21 -23 vvcurveto
          -21 -3 -21 -4 -23 vhcurveto
          21 -7 6 21 6 20 8 20 rlinecurve
          -4 51 45 -3 51 hhcurveto
          12 3 15 7 0 vvcurveto
          2 -4 -135 -159 rlineto
          hintmask 11011000
          4 -6 rlineto
          89 53 -48 -89 -25 -3 -27 -10 -23 -16 callsubr
          103 -50 66 -102 17 vhcurveto
          128 133 26 25 23 21 -17 15 rcurveline
          -10 -10 -12 -8 -14 -9 rrcurveto
          -91 -100 7 20 -89 hvcurveto
          endchar
        </CharString>
        <CharString name="threequarters">
          85 callgsubr
          318 172 57 -20 hstemhm
          218 71 375 65 hintmask 10111110
          -25 callgsubr
          hintmask 11011110
          29 callsubr
          hintmask 10111110
          6 callgsubr
          -664 509 -57 callgsubr
          -7 -8 -7 -5 -9 -5 rrcurveto
          -68 -68 4 14 -67 hvcurveto
          86 -707 -47 callgsubr
          514 372 23 callgsubr
        </CharString>
        <CharString name="threesuperior">
          -180 360 -21 52 164 0 172 18 -20 hstemhm
          218 71 hintmask 11011000
          65 745 -57 callgsubr
          hintmask 10101000
          -7 -8 -7 -5 -9 -5 rrcurveto
          hintmask 11011000
          -68 -68 4 14 -67 hvcurveto
          endchar
        </CharString>
        <CharString name="tilde">
          -184 596 8 callsubr
          hintmask 01100000
          18 603 -22 callsubr
        </CharString>
        <CharString name="tilde.cap">
          -184 737 8 callsubr
          hintmask 01100000
          18 744 -22 callsubr
        </CharString>
        <CharString name="two">
          -39 5 -21 34 69 387 62 hstem
          295 99 vstem
          394 357 rmoveto
          123 -41 56 -123 vhcurveto
          -66 -19 -101 5 callgsubr
          22 21 4 23 hhcurveto
          60 34 -24 -60 -136 -201 -116 -58 -145 hvcurveto
          20 -9 10 15 5 6 11 13 rlinecurve
          99 1 110 -13 108 -21 12 8 rcurveline
          -5 21 -2 18 51 callgsubr
          -68 9 -77 6 -66 -2 rrcurveto
          -11 -3 -15 -8 0 vvcurveto
          -2 7 89 73 111 105 62 96 rlinecurve
          endchar
        </CharString>
        <CharString name="twosuperior">
          -142 360 -21 355 52 hstem
          231 81 vstem
          184 746 -61 callsubr
        </CharString>
        <CharString name="u">
          64 7 callgsubr
          hstemhm
          89 83 callgsubr
          hintmask 10011100
          16 callgsubr
          hintmask 10101100
          -81 callsubr
          hintmask 10011100
          8 callgsubr
          hintmask 10101100
          45 callgsubr
          hintmask 10011100
          -80 callgsubr
          hintmask 01011100
          -64 callgsubr
          endchar
        </CharString>
        <CharString name="uacute">
          68 7 callgsubr
          70 -21 hstemhm
          93 83 callgsubr
          hintmask 00001000
          463 -24 callgsubr
          hintmask 10010110
          201 -70 -76 callsubr
          endchar
        </CharString>
        <CharString name="ucircumflex">
          64 7 callgsubr
          66 -21 185 -80 callsubr
          -187 156 -66 callsubr
        </CharString>
        <CharString name="udieresis">
          64 7 callgsubr
          112 -21 111 -80 callsubr
          -225 173 -96 callgsubr
        </CharString>
        <CharString name="ugrave">
          64 7 callgsubr
          70 -21 hstemhm
          89 83 callgsubr
          hintmask 10010110
          471 488 -76 callsubr
          hintmask 00001000
          -150 70 rmoveto
          11 18 -51 35 -51 62 -30 54 rlinecurve
          -12 1 -20 0 -11 -2 -9 -11 -15 -34 -1 87 callgsubr
        </CharString>
        <CharString name="underscore">
          101 -185 80 callsubr
          619 -146 rmoveto
          9 callsubr
          -94 90 callgsubr
          -113 -236 3 6 -113 53 callgsubr
          606 hlineto
          endchar
        </CharString>
        <CharString name="v">
          -5 15 -21 27 -21 521 30 callsubr
          hstemhm
          374 88 hintmask 01011000
          294 33 rmoveto
          117 218 51 75 callgsubr
          27 7 18 -11 callgsubr
          -4 -29 -48 36 callsubr
          -17 -79 -95 -212 vhcurveto
          -52 143 -55 201 -9 90 22 3 30 43 callsubr
          hintmask 01101000
          60 callsubr
          hintmask 01011000
          -25 -64 44 callsubr
          16 -5 39 -9 17 -2 5 callsubr
          hintmask 10011000
          40 42 -2 -4 29 hvcurveto
          5 22 -18 6 -28 9 -18 2 rlinecurve
          endchar
        </CharString>
        <CharString name="w">
          229 15 -21 27 -21 498 23 9 -20 hstemhm
          353 85 175 88 hintmask 01101100
          286 33 rmoveto
          39 79 31 73 24 55 rrcurveto
          38 -128 11 -53 -21 24 callsubr
          36 1 29 hhcurveto
          hintmask 10101100
          30 37 65 callgsubr
          117 218 41 75 callgsubr
          20 7 18 -11 callgsubr
          -4 -29 -41 36 callsubr
          -15 -79 -85 -212 vhcurveto
          -31 85 -34 106 -23 91 rrcurveto
          9 38 4 36 33 vvcurveto
          14 0 13 -2 15 vhcurveto
          19 3 22 8 18 -11 callgsubr
          -8 -78 -72 0 -81 hhcurveto
          hintmask 01011100
          -93 -101 0 9 -88 hvcurveto
          -4 -26 19 -6 26 -8 20 -3 5 callsubr
          hintmask 10101100
          30 38 65 callgsubr
          67 381 rmoveto
          -68 -13 -79 -85 -212 vhcurveto
          -52 143 -55 199 -9 90 rrcurveto
          7 36 49 4 36 hhcurveto
          68 25 -16 -68 hvcurveto
          endchar
        </CharString>
        <CharString name="x">
          13 -33 callsubr
          hstemhm
          hintmask 01010000
          153 32 rmoveto
          -2 hlineto
          5 25 46 85 52 87 rrcurveto
          60 -99 32 -74 -26 vvcurveto
          -10 -3 -5 -5 -3 vhcurveto
          4 -17 rlineto
          4 24 29 1 25 hhcurveto
          hintmask 10010000
          29 52 -4 -4 29 hvcurveto
          4 26 -18 6 -33 7 -19 3 rlinecurve
          -160 244 65 87 62 76 30 46 rlinecurve
          19 3 33 7 18 -11 callgsubr
          hintmask 01100000
          3 callgsubr
          hintmask 01010000
          -4 -17 rlineto
          15 -4 12 -6 -15 vvcurveto
          -21 -32 -61 -52 -86 vhcurveto
          -51 84 -30 55 -2 34 22 3 31 43 callsubr
          hintmask 01100000
          -5 -30 -64 -3 -40 hhcurveto
          hintmask 10010000
          -35 -60 44 callsubr
          15 -5 34 -9 18 -2 rlinecurve
          150 -225 -66 -89 -73 -94 -30 -45 rlinecurve
          -17 -2 -33 -9 -16 -5 4 -26 rcurveline
          hintmask 01010000
          5 25 48 3 35 hhcurveto
          hintmask 10010000
          40 61 -18 callgsubr
          -43 7 -22 3 rlinecurve
          endchar
        </CharString>
        <CharString name="y">
          -49 -33 callsubr
          hstemhm
          194 76 hintmask 10011000
          152 23 callsubr
          hintmask 10101000
          60 callsubr
          hintmask 10011000
          -44 callsubr
          hintmask 01011000
          -20 callsubr
          -29 -17 callgsubr
          30 -6 83 92 vvcurveto
          166 250 19 3 29 6 18 6 rlinecurve
          -4 26 rlineto
          hintmask 10101000
          3 callgsubr
          hintmask 10011000
          -20 callgsubr
          endchar
        </CharString>
        <CharString name="yacute">
          28 -33 callsubr
          70 -21 hstemhm
          206 76 hintmask 10010100
          164 23 callsubr
          hintmask 10100100
          60 callsubr
          hintmask 10010100
          -44 callsubr
          hintmask 01010100
          -20 callsubr
          -29 -17 callgsubr
          30 -6 83 92 vvcurveto
          166 250 19 3 29 6 18 6 rlinecurve
          -4 26 rlineto
          hintmask 10100100
          3 callgsubr
          hintmask 10010100
          -20 callgsubr
          hintmask 00001000
          293 178 -67 callsubr
          endchar
        </CharString>
        <CharString name="ydieresis">
          28 -33 callsubr
          112 21 callsubr
          206 76 hintmask 10010010
          164 23 callsubr
          hintmask 10100010
          60 callsubr
          hintmask 10010010
          -44 callsubr
          hintmask 01010010
          -20 callsubr
          -29 -17 callgsubr
          30 -6 83 92 vvcurveto
          166 250 19 3 29 6 18 6 rlinecurve
          -4 26 rlineto
          hintmask 10100010
          3 callgsubr
          hintmask 10010010
          -20 callgsubr
          hintmask 00001100
          57 172 -96 callgsubr
        </CharString>
        <CharString name="yen">
          -64 0 161 -148 -21 143 26 54 26 282 -20 76 callsubr
          197 74 hintmask 01110110
          156 493 rmoveto
          13 8 21 8 16 5 -5 20 rcurveline
          hintmask 01111010
          -33 -6 -40 -3 -31 -2 -36 -2 -44 4 -36 4 -2 -20 rcurveline
          20 -8 39 -10 21 -4 33 -48 35 -65 63 -131 -118 -4 49 callgsubr
          13 hlineto
          -17 -1 -16 -16 vvcurveto
          -126 -4 -1 -11 -3 -11 -3 -10 rlinecurve
          3 -4 25 4 49 4 44 1 rlinecurve
          11 hlineto
          -2 -43 -3 -39 -2 -17 -17 -4 -26 -9 -16 -7 3 -19 rcurveline
          hintmask 10010110
          4 34 34 2 34 hhcurveto
          hintmask 01111010
          35 35 -3 -5 35 hvcurveto
          2 19 -17 6 -29 9 -17 4 rlinecurve
          -5 36 -3 33 -1 35 135 2 rcurveline
          -35 callgsubr
          -43 -2 rcurveline
          -1 15 0 16 18 vvcurveto
          137 -19 callgsubr
          -44 -2 rcurveline
          1 vlineto
          144 246 15 7 22 4 17 2 rlinecurve
          -2 22 rlineto
          -3 -21 -28 -1 -21 hhcurveto
          -20 -29 2 5 -21 hvcurveto
          -3 -7 rlineto
          9 -9 4 -9 -14 vvcurveto
          -37 -17 -48 -69 -135 vhcurveto
          -65 133 -21 58 -7 31 rrcurveto
          endchar
        </CharString>
        <CharString name="z">
          -74 5 -21 33 45 404 46 21 -20 29 -20 hstemhm
          hintmask 11110000
          334 512 rmoveto
          -118 -136 21 -51 hhcurveto
          -2 -22 13 -3 10 -4 11 -6 rlinecurve
          6 -23 2 -22 -23 vvcurveto
          -16 -1 -12 -1 -15 vhcurveto
          24 -3 9 21 7 24 4 22 rlinecurve
          12 28 25 3 31 hhcurveto
          108 hlineto
          2 -2 -227 -370 -21 -35 -37 -42 -16 -16 rlinecurve
          21 -17 rlineto
          25 21 42 8 32 hhcurveto
          86 106 -5 -14 84 hvcurveto
          6 -4 6 -4 4 -6 20 14 rcurveline
          -43 44 -15 43 -4 61 rrcurveto
          -26 hlineto
          -26 -1 -17 -4 -26 vhcurveto
          -13 -17 -25 -2 -23 hhcurveto
          -120 hlineto
          -3 2 217 375 27 47 21 26 16 14 rlinecurve
          hintmask 11101000
          -21 16 rlineto
          -23 -25 -19 -7 -33 hhcurveto
          endchar
        </CharString>
        <CharString name="zero">
          -39 6 -21 551 -20 hstem
          116 244 vstem
          20 244 rmoveto
          -163 38 88 -96 92 hhcurveto
          71 109 91 199 38 hvcurveto
          163 -38 -88 98 -92 hhcurveto
          -71 -109 -93 -199 -38 hvcurveto
          218 257 rmoveto
          79 -30 43 -111 -100 vvcurveto
          -100 -43 -111 -79 -30 vhcurveto
          -79 30 -43 111 100 vvcurveto
          100 43 111 79 30 vhcurveto
          endchar
        </CharString>
      <CharString index="0">
        -101 callgsubr
        -98 callsubr
        rrcurveto
        return
      </CharString>
      <CharString index="1">
        -101 callsubr
        71 3 50 hhcurveto
        return
      </CharString>
      <CharString index="2">
        rmoveto
        -106 callgsubr
        -158 -560 -37 callgsubr
        hintmask 01110010
        -94 callsubr
        hintmask 10110010
        75 callsubr
        -56 callgsubr
        hintmask 10110010
        -102 callsubr
        endchar
      </CharString>
      <CharString index="3">
        rmoveto
        -61 -54 -51 -73 -80 vvcurveto
        -28 8 -36 28 3 3 0 1 2 vhcurveto
        7 19 13 22 13 16 -2 7 rcurveline
        -20 10 -12 48 22 vvcurveto
        32 12 33 22 34 hhcurveto
        107 41 -142 -142 -70 -14 -82 -36 -66 hvcurveto
        -23 -26 -40 -12 -33 hhcurveto
        -129 -62 151 131 86 22 99 49 71 hvcurveto
        -12 8 rlineto
        -97 -88 -51 -119 -131 98 callsubr
        102 -115 157 vhcurveto
        166 64 93 158 180 -18 callsubr
        endchar
      </CharString>
      <CharString index="4">
        hvcurveto
        -106 callgsubr
        return
      </CharString>
      <CharString index="5">
        rmoveto
        -107 callgsubr
        return
      </CharString>
      <CharString index="6">
        -10 17 -30 24 -14 9 -17 -9 -28 -24 -9 -17 return
      </CharString>
      <CharString index="7">
        -78 callgsubr
        4 -29 6 -100 -75 vvcurveto
        -47 -28 callsubr
        -3 -24 vhcurveto
        -39 callgsubr
        4 -26 rcurveline
        return
      </CharString>
      <CharString index="8">
        -97 callgsubr
        62 21 59 45 40 51 -14 14 rcurveline
        -36 -36 -46 -25 -48 hhcurveto
        return
      </CharString>
      <CharString index="9">
        131 247 -103 callsubr
        return
      </CharString>
      <CharString index="10">
        20 24 32 8 32 hhcurveto
        27 37 -7 -12 24 hvcurveto
        -20 3 -29 5 -21 45 callsubr
        40 6 31 15 36 rrcurveto
        5 12 12 2 12 28 callgsubr
        8 -49 -66 7 -50 hhcurveto
        -137 -39 -94 -140 -142 vvcurveto
        -132 75 -92 132 vhcurveto
        return
      </CharString>
      <CharString index="11">
        -105 callsubr
        endchar
      </CharString>
      <CharString index="12">
        1 18 22 0 18 hhcurveto
        -54 callgsubr
        59 vlineto
        94 7 136 6 34 vhcurveto
        -38 callgsubr
        21 rcurveline
        -5 -40 -78 -3 -40 hhcurveto
        -46 -50 2 6 -46 hvcurveto
        -4 -22 22 -7 51 -11 23 -3 rlinecurve
        3 -31 8 -111 -150 vvcurveto
        -88 -3 -72 -2 -52 vhcurveto
        return
      </CharString>
      <CharString index="13">
        -68 callsubr
        5 -37 8 -127 -94 -90 callgsubr
        return
      </CharString>
      <CharString index="14">
        5 23 56 3 33 hhcurveto
        18 44 -13 callsubr
        -28 16 -7 22 31 vvcurveto
        30 12 51 8 33 vhcurveto
        4 28 30 1 29 hhcurveto
        28 33 -2 -3 28 hvcurveto
        -2 -73 -4 -60 -3 -28 -16 -2 -45 -9 -16 -5 rrcurveto
        return
      </CharString>
      <CharString index="15">
        -91 callgsubr
        -5 return
      </CharString>
      <CharString index="16">
        46 64 -3 -5 46 -87 callgsubr
        return
      </CharString>
      <CharString index="17">
        vvcurveto
        -59 vlineto
        -138 -7 -90 35 callgsubr
        -66 callgsubr
        return
      </CharString>
      <CharString index="18">
        -95 -95 -66 -95 -134 115 -66 134 hvcurveto
        83 27 100 84 87 -79 callgsubr
        -19 -29 -31 -5 -34 hhcurveto
        -92 -77 48 102 95 87 35 95 hvcurveto
        12 hlineto
        5 37 rlineto
        return
      </CharString>
      <CharString index="19">
        1 7 -74 hvcurveto
        -59 -29 -94 -102 -65 -107 callsubr
        return
      </CharString>
      <CharString index="20">
        96 callgsubr
        -29 -61 callgsubr
        return
      </CharString>
      <CharString index="21">
        21 -35 callsubr
        67 -21 13 callsubr
        hintmask 10101010
        -73 callgsubr
        hintmask 01110010
        -93 callgsubr
        hintmask 10110010
        28 callsubr
        hintmask 01110010
        18 callgsubr
        hintmask 10101001
        -84 callsubr
        hintmask 10110010
        17 callsubr
        hintmask 10101010
        -71 callsubr
        hintmask 10110010
        -65 callsubr
        hintmask 00000100
        return
      </CharString>
      <CharString index="22">
        803 -105 callsubr
        return
      </CharString>
      <CharString index="23">
        40 64 -2 -6 40 -38 callsubr
        -5 34 -6 -24 callsubr
        15 28 73 callgsubr
        92 53 -18 -94 -94 -56 -46 -94 hvcurveto
        -12 hlineto
        -3 -22 rlineto
        20 18 -1 -4 20 hvcurveto
        71 -132 23 -78 -45 vvcurveto
        -30 -8 -18 -9 -9 vhcurveto
        4 -14 rlineto
        return
      </CharString>
      <CharString index="24">
        -84 callsubr
        hintmask 1011000100000000
        17 callsubr
        hintmask 1010100100000000
        -71 callsubr
        hintmask 1011000100000000
        -65 callsubr
        return
      </CharString>
      <CharString index="25">
        hintmask 1010100100000000
        -73 callgsubr
        hintmask 0111000100000000
        -93 callgsubr
        hintmask 1011000100000000
        70 callgsubr
        25 64 3 25 hhcurveto
        return
      </CharString>
      <CharString index="26">
        -92 callsubr
        113 170 vvcurveto
        101 6 126 5 34 vhcurveto
        return
      </CharString>
      <CharString index="27">
        -29 -46 4 4 -29 hvcurveto
        -4 -27 18 -6 30 -6 19 -3 rlinecurve
        -1 vlineto
        5 -13 1 -13 -14 -31 -14 -143 -79 vvcurveto
        -125 47 -80 125 vhcurveto
        43 16 45 30 32 33 -3 -41 -2 -8 -7 -8 4 -13 rcurveline
        return
      </CharString>
      <CharString index="28">
        vvcurveto
        16 -11 14 -16 1 vhcurveto
        -16 -17 -16 -14 -18 -11 -1 -7 rcurveline
        9 -10 1 -16 -13 vvcurveto
        -11 -2 -25 -5 -10 vhcurveto
        return
      </CharString>
      <CharString index="29">
        -64 callsubr
        27 -6 17 -3 rlinecurve
        return
      </CharString>
      <CharString index="30">
        -74 -98 -83 callsubr
        -8 -132 -5 -37 vhcurveto
        return
      </CharString>
      <CharString index="31">
        797 rmoveto
        1 14 -9 36 -7 12 -11 4 -19 4 -12 1 -40 -48 -60 -53 -57 -25 8 -20 rcurveline
        return
      </CharString>
      <CharString index="32">
        -50 47 -23 50 vhcurveto
        53 16 43 36 55 vvcurveto
        54 -37 20 -54 vhcurveto
        -55 -12 -47 -40 -56 vvcurveto
        88 73 rmoveto
        36 22 -23 -36 -14 -3 -17 -8 -12 hvcurveto
        -6 -7 -13 -3 -10 hhcurveto
        -35 -23 24 35 14 3 17 8 12 hvcurveto
        6 7 13 3 10 hhcurveto
        endchar
      </CharString>
      <CharString index="33">
        50 36 81 callsubr
        -25 7 -43 8 -28 92 callsubr
        133 94 vvcurveto
        59 vlineto
        138 9 93 97 callsubr
        30 3 40 10 29 7 -3 23 rcurveline
        -5 -37 -49 -3 -50 hhcurveto
        -32 -39 13 callgsubr
        59 -21 13 -110 -214 vvcurveto
        -144 vlineto
        -4 -2 -216 336 -46 78 -7 35 rlinecurve
        13 14 9 27 11 vhcurveto
        endchar
      </CharString>
      <CharString index="34">
        108 532 rmoveto
        -3 -26 21 -6 36 -7 96 callsubr
        -130 -456 -17 -3 -35 -8 -14 -5 47 callgsubr
        return
      </CharString>
      <CharString index="35">
        -5 -32 -50 -3 -32 hhcurveto
        -37 -44 2 5 -37 hvcurveto
        -3 -25 27 -7 30 -5 26 -3 rlinecurve
        return
      </CharString>
      <CharString index="36">
        rmoveto
        -66 callgsubr
        hintmask 01101010
        -56 callgsubr
        hintmask 10101010
        -91 callsubr
        return
      </CharString>
      <CharString index="37">
        715 rmoveto
        10 19 -64 40 -52 50 -45 61 rlinecurve
        -20 hlineto
        -45 -61 -52 -50 -64 -40 10 -19 rcurveline
        161 75 rlineto
        return
      </CharString>
      <CharString index="38">
        -18 -21 -30 -8 -28 hhcurveto
        -104 -49 118 104 57 10 66 31 53 hvcurveto
        16 21 31 9 26 hhcurveto
        return
      </CharString>
      <CharString index="39">
        192 283 -78 callsubr
        return
      </CharString>
      <CharString index="40">
        -44 callgsubr
        -57 callsubr
        return
      </CharString>
      <CharString index="41">
        -70 callsubr
        4 -25 rcurveline
        return
      </CharString>
      <CharString index="42">
        -64 -48 -93 callsubr
        6 -48 callgsubr
        return
      </CharString>
      <CharString index="43">
        2 13 18 73 callgsubr
        35 55 -2 -5 35 hvcurveto
        3 25 -22 6 -30 5 -24 66 callsubr
        27 -6 67 111 vvcurveto
        47 vlineto
        75 6 102 84 callgsubr
        return
      </CharString>
      <CharString index="44">
        hintmask 10101000
        -68 callgsubr
        hintmask 10011000
        -100 callgsubr
        return
      </CharString>
      <CharString index="45">
        -47 callgsubr
        -21 339 -75 callsubr
        return
      </CharString>
      <CharString index="46">
        7 -51 9 -30 3 rlinecurve
        return
      </CharString>
      <CharString index="47">
        rmoveto
        -108 -23 -79 -82 -63 vhcurveto
        17 -19 71 41 68 65 33 73 rlinecurve
        -3 24 -6 69 111 vvcurveto
        47 vlineto
        75 6 100 4 29 vhcurveto
        -32 callgsubr
        return
      </CharString>
      <CharString index="48">
        731 rmoveto
        8 20 -57 25 -60 53 -40 48 rlinecurve
        -12 -1 -19 -4 -11 -4 -7 -12 -9 -36 1 -14 rrcurveto
        return
      </CharString>
      <CharString index="49">
        -205 13 68 callsubr
        -63 callgsubr
        hintmask 01101000
        -88 callsubr
        -27 7 -30 -17 callgsubr
        30 -5 84 47 callsubr
        endchar
      </CharString>
      <CharString index="50">
        rmoveto
        -9 -6 rlineto
        5 -16 2 -14 -15 vvcurveto
        -17 -2 -17 -3 -17 vhcurveto
        17 -6 4 15 5 14 7 13 rlinecurve
        -3 30 31 -2 34 hhcurveto
        8 2 11 5 0 vvcurveto
        2 -3 -85 -119 3 -4 rlineto
        62 31 -38 -62 -19 -2 -15 -7 -18 hvcurveto
        -10 -8 -17 -2 -12 hhcurveto
        -28 -40 13 14 -25 hvcurveto
        -1 15 0 13 14 vvcurveto
        -18 hlineto
        -4 -30 -8 -28 -18 -25 rrcurveto
        -12 vlineto
        -15 34 57 -11 39 hhcurveto
        52 19 59 54 18 50 rrcurveto
        71 -32 54 -72 13 vhcurveto
        89 105 13 14 17 15 -13 11 rcurveline
        return
      </CharString>
      <CharString index="51">
        6 40 64 2 40 hhcurveto
        return
      </CharString>
      <CharString index="52">
        -73 callsubr
        -5 -29 -19 -21 -24 -18 10 -13 rcurveline
        54 28 48 43 4 60 rrcurveto
        endchar
      </CharString>
      <CharString index="53">
        40 76 -3 -5 40 -87 callgsubr
        -6 34 -7 89 138 vvcurveto
        return
      </CharString>
      <CharString index="54">
        rmoveto
        -101 callgsubr
        return
      </CharString>
      <CharString index="55">
        26 3 30 5 27 -3 callgsubr
        return
      </CharString>
      <CharString index="56">
        -77 callsubr
        5 -50 4 -105 -86 vvcurveto
        -201 vlineto
        -150 -50 -79 -124 -85 vhcurveto
        12 -21 103 45 94 68 50 101 41 callgsubr
        88 7 117 5 45 vhcurveto
        44 callgsubr
        rrcurveto
        endchar
      </CharString>
      <CharString index="57">
        50 54 -3 -5 37 -38 callsubr
        -140 296 rlineto
        78 30 47 57 83 vvcurveto
        123 -87 24 -121 vhcurveto
        return
      </CharString>
      <CharString index="58">
        5 37 54 3 50 hhcurveto
        32 41 -1 -3 23 hvcurveto
        4 14 rlineto
        return
      </CharString>
      <CharString index="59">
        -50 6 -108 -83 -90 callgsubr
        return
      </CharString>
      <CharString index="60">
        rmoveto
        398 552 62 86 41 57 33 41 rlinecurve
        -4 3 -17 1 -19 2 -17 4 rlinecurve
        -46 -70 -37 -55 -49 -68 -254 -351 rcurveline
        -36 -49 -51 -64 -38 -48 7 -15 10 -15 12 -10 rrcurveto
        return
      </CharString>
      <CharString index="61">
        -42 callsubr
        28 27 65 4 49 1 return
      </CharString>
      <CharString index="62">
        -68 callsubr
        4 -30 7 -127 -101 vvcurveto
        -50 vlineto
        -2 -134 -2 -99 -20 -98 21 -6 rcurveline
        5 15 9 19 9 12 rrcurveto
        return
      </CharString>
      <CharString index="63">
        -2 -2 20 hvcurveto
        3 -18 7 -27 6 -17 24 4 rcurveline
        return
      </CharString>
      <CharString index="64">
        40 29 -4 -7 32 hvcurveto
        3 26 -20 7 -24 5 -23 4 rlinecurve
        -5 27 -5 104 75 vvcurveto
        47 vlineto
        110 7 72 3 24 vhcurveto
        24 3 22 6 23 7 -3 26 rcurveline
        return
      </CharString>
      <CharString index="65">
        43 callgsubr
        2 24 -28 -61 callgsubr
        -32 65 -5 147 108 vvcurveto
        168 vlineto
        4 2 rlineto
        229 -357 72 -127 -44 vvcurveto
        return
      </CharString>
      <CharString index="66">
        rmoveto
        -161 75 -10 -19 64 -40 52 -50 45 -61 rlinecurve
        20 hlineto
        45 61 52 50 64 40 -10 19 rcurveline
        endchar
      </CharString>
      <CharString index="67">
        25 hlineto
        3 54 17 59 38 35 rrcurveto
        20 vlineto
        12 -54 -52 5 -57 hhcurveto
        -95 -33 -111 -86 -100 -117 286 -115 -108 vvcurveto
        -86 -37 -54 -86 -68 -118 46 68 11 2 11 5 10 vhcurveto
        14 14 34 22 23 hhcurveto
        4 4 -1 -1 2 hvcurveto
        6 4 2 23 5 22 9 18 rlinecurve
        -3 7 rlineto
        return
      </CharString>
      <CharString index="68">
        -17 -3 -27 -6 -19 -6 return
      </CharString>
      <CharString index="69">
        30 3 51 9 29 7 -3 return
      </CharString>
      <CharString index="70">
        -70 callsubr
        rlinecurve
        48 callgsubr
        return
      </CharString>
      <CharString index="71">
        -100 callgsubr
        hintmask 01100100
        -88 callsubr
        -27 7 -30 -17 callsubr
        return
      </CharString>
      <CharString index="72">
        5 vlineto
        -7 callgsubr
        -34 -1 -25 -1 return
      </CharString>
      <CharString index="73">
        143 -46 callsubr
        -158 -560 -37 callgsubr
        return
      </CharString>
      <CharString index="74">
        -38 callgsubr
        24 rcurveline
        return
      </CharString>
      <CharString index="75">
        17 3 27 6 19 -11 callgsubr
        return
      </CharString>
      <CharString index="76">
        -205 -33 callsubr
        return
      </CharString>
      <CharString index="77">
        37 hvcurveto
        3 25 return
      </CharString>
      <CharString index="78">
        rmoveto
        -26 52 -4 121 86 vvcurveto
        134 vlineto
        4 2 rlineto
        166 -286 79 -106 -40 vvcurveto
        3 18 25 1 18 hhcurveto
        return
      </CharString>
      <CharString index="79">
        -36 callsubr
        28 -4 110 103 vvcurveto
        82 4 97 84 callgsubr
        28 3 33 6 28 -3 callgsubr
        return
      </CharString>
      <CharString index="80">
        -4 -14 -5 -12 -7 -13 rrcurveto
        -12 25 37 -9 26 hhcurveto
        38 13 39 33 19 36 rrcurveto
        58 -45 26 -58 vhcurveto
        -4 3 return
      </CharString>
      <CharString index="81">
        rmoveto
        38 45 -7 -38 -14 -4 -10 -5 -7 hvcurveto
        -3 -5 -11 -2 -10 hhcurveto
        -25 -25 11 14 -18 hvcurveto
        -4 -2 rlineto
        return
      </CharString>
      <CharString index="82">
        729 263 rmoveto
        35 2 69 7 37 vhcurveto
        -6 2 -22 -8 -24 -6 -25 -3 rlinecurve
        -50 -98 -70 -85 -71 -83 4 -12 rcurveline
        189 hlineto
        -24 -1 -25 -4 -23 vhcurveto
        -15 -3 -25 -8 -14 -6 2 -17 rcurveline
        return
      </CharString>
      <CharString index="83">
        667 -67 callsubr
        return
      </CharString>
      <CharString index="84">
        -5 -46 -64 -3 -46 hhcurveto
        return
      </CharString>
      <CharString index="85">
        -10 callsubr
        -47 -21 callsubr
        return
      </CharString>
      <CharString index="86">
        51 callsubr
        53 481 rmoveto
        -37 callsubr
        return
      </CharString>
      <CharString index="87">
        -4 -17 rlineto
        13 -3 14 -6 -13 vvcurveto
        -25 -20 -58 -69 -134 vhcurveto
        -31 58 -43 96 -21 65 rrcurveto
        return
      </CharString>
      <CharString index="88">
        2 rlineto
        -35 callgsubr
        return
      </CharString>
      <CharString index="89">
        -3 -5 30 66 callgsubr
        -22 5 return
      </CharString>
      <CharString index="90">
        -17 callsubr
        -4 return
      </CharString>
      <CharString index="91">
        -12 callsubr
        hintmask 0000101000000000
        -89 callsubr
        return
      </CharString>
      <CharString index="92">
        -105 -21 222 19 callsubr
        -3 -38 -23 -44 -30 -29 10 -11 rcurveline
        62 36 52 67 69 vvcurveto
        return
      </CharString>
      <CharString index="93">
        -64 -62 -10 callgsubr
        return
      </CharString>
      <CharString index="94">
        rcurveline
        -1 -11 -3 -11 -3 -10 3 -4 rcurveline
        return
      </CharString>
      <CharString index="95">
        -56 callsubr
        651 -20 return
      </CharString>
      <CharString index="96">
        6 -4 26 rcurveline
        return
      </CharString>
      <CharString index="97">
        -43 callsubr
        29 30 return
      </CharString>
      <CharString index="98">
        66 callsubr
        30 return
      </CharString>
      <CharString index="99">
        151 -15 81 -45 27 callgsubr
        return
      </CharString>
      <CharString index="100">
        -4 9 -3 12 -2 10 -25 -3 return
      </CharString>
      <CharString index="101">
        vvcurveto
        20 -2 17 -3 21 vhcurveto
        46 callsubr
        93 callgsubr
        -5 -37 -54 -3 -50 hhcurveto
        -32 -31 13 callgsubr
        43 -25 7 -49 -49 vvcurveto
        return
      </CharString>
      <CharString index="102">
        -12 callgsubr
        28 -20 return
      </CharString>
      <CharString index="103">
        -27 callgsubr
        24 62 -29 -2 -38 -107 rlineto
        endchar
      </CharString>
      <CharString index="104">
        7 -3 25 rcurveline
        return
      </CharString>
      <CharString index="105">
        33 56 -3 -5 23 hvcurveto
        4 26 -14 5 -35 8 -17 3 rlinecurve
        -132 284 88 83 23 49 5 37 rlinecurve
        17 3 36 8 14 5 -4 26 rcurveline
        return
      </CharString>
      <CharString index="106">
        230 1 110 15 callsubr
        3 -81 1 -212 7 -3 rcurveline
        13 4 19 8 9 5 rrcurveto
        return
      </CharString>
      <CharString index="107">
        -4 -21 -23 -2 -22 hhcurveto
        return
      </CharString>
      <CharString index="108">
        -75 37 callgsubr
        return
      </CharString>
      <CharString index="109">
        rmoveto
        101 8 126 5 34 vhcurveto
        30 3 50 9 30 7 -3 24 rcurveline
        return
      </CharString>
      <CharString index="110">
        -4 -29 -49 -4 -29 hhcurveto
        -25 -29 1 4 -24 hvcurveto
        return
      </CharString>
      <CharString index="111">
        -20 14 callsubr
        return
      </CharString>
      <CharString index="112">
        -70 -66 vvcurveto
        -14 10 -14 16 -1 vhcurveto
        15 16 14 12 19 12 1 7 rcurveline
        -8 7 -2 6 14 vvcurveto
        9 4 20 3 5 vhcurveto
        10 return
      </CharString>
      <CharString index="113">
        -4 20 -1 24 26 vvcurveto
        15 31 0 -2 24 hvcurveto
        4 2 -1 25 1 24 5 24 rlinecurve
        -14 4 rlineto
        -28 -10 -25 -4 -31 hhcurveto
        return
      </CharString>
      <CharString index="114">
        -12 69 -36 -21 521 30 callsubr
        return
      </CharString>
      <CharString index="115">
        4 32 8 21 30 16 -4 17 rcurveline
        return
      </CharString>
      <CharString index="116">
        -21 111 -20 return
      </CharString>
      <CharString index="117">
        20 callsubr
        hstemhm
        return
      </CharString>
      <CharString index="118">
        64 -3 -5 return
      </CharString>
      <CharString index="119">
        -107 callgsubr
        endchar
      </CharString>
      <CharString index="120">
        1 3 -23 hvcurveto
        -4 -14 rlineto
        return
      </CharString>
      <CharString index="121">
        vhcurveto
        8 20 72 callgsubr
        return
      </CharString>
      <CharString index="122">
        453 -21 hstem
        76 432 -4 callsubr
        return
      </CharString>
      <CharString index="123">
        471 488 rmoveto
        -32 callgsubr
        return
      </CharString>
      <CharString index="124">
        rmoveto
        -30 -3 -51 -9 -29 -7 3 -24 rcurveline
        return
      </CharString>
      <CharString index="125">
        5 25 64 3 25 hhcurveto
        return
      </CharString>
      <CharString index="126">
        hlineto
        5 -60 7 -97 -86 -90 callgsubr
        return
      </CharString>
      <CharString index="127">
        -6 -19 -24 -4 -22 hhcurveto
        -4 -7 rlineto
        -30 -20 -45 -30 return
      </CharString>
      <CharString index="128">
        -20 18 callsubr
        return
      </CharString>
      <CharString index="129">
        42 85 272 85 return
      </CharString>
      <CharString index="130">
        rmoveto
        5 hlineto
        -2 -174 rlineto
        -41 -38 2 4 -29 hvcurveto
        36 49 43 64 26 55 rrcurveto
        endchar
      </CharString>
      <CharString index="131">
        -7 -73 hhcurveto
        -25 vlineto
        22 22 -5 -8 21 hvcurveto
        3 return
      </CharString>
      <CharString index="132">
        hvcurveto
        68 193 54 68 8 -5 9 -7 5 hvcurveto
        return
      </CharString>
      <CharString index="133">
        hstemhm
        22 callgsubr
        return
      </CharString>
      <CharString index="134">
        95 callgsubr
        55 callgsubr
        return
      </CharString>
      <CharString index="135">
        hhcurveto
        1 22 rlineto
        return
      </CharString>
      <CharString index="136">
        3 25 18 2 26 hhcurveto
        20 17 -44 callgsubr
        return
      </CharString>
      <CharString index="137">
        hhcurveto
        61 21 47 43 40 52 -11 10 rcurveline
        -32 -32 -43 -24 -44 hhcurveto
        -93 -17 69 93 hvcurveto
        return
      </CharString>
      <CharString index="138">
        307 -15 rmoveto
        172 49 99 174 178 vvcurveto
        179 -94 86 -179 vhcurveto
        return
      </CharString>
      <CharString index="139">
        109 10 -21 32 -21 521 -20 31 -20 return
      </CharString>
      <CharString index="140">
        42 89 340 89 return
      </CharString>
      <CharString index="141">
        3 6 -113 hvcurveto
        return
      </CharString>
      <CharString index="142">
        -4 -30 vhcurveto
        return
      </CharString>
      <CharString index="143">
        64 callsubr
        8 -15 19 -23 13 -12 return
      </CharString>
      <CharString index="144">
        vvcurveto
        -47 vlineto
        return
      </CharString>
      <CharString index="145">
        110 55 -2 4 -8 7 -8 9 -5 8 rlinecurve
        -23 -14 -26 -13 -25 -13 return
      </CharString>
      <CharString index="146">
        vvcurveto
        -117 -2 -125 -22 -100 42 callgsubr
        return
      </CharString>
      <CharString index="147">
        105 -56 callsubr
        601 50 8 -20 return
      </CharString>
      <CharString index="148">
        rlinecurve
        -4 39 -4 86 92 callgsubr
        return
      </CharString>
      <CharString index="149">
        vhcurveto
        21 -5 5 15 11 19 7 11 rlinecurve
        return
      </CharString>
      <CharString index="150">
        46 11 callgsubr
        46 hvcurveto
        return
      </CharString>
      <CharString index="151">
        28 7 34 10 27 10 return
      </CharString>
      <CharString index="152">
        -4 -24 -29 -1 -25 hhcurveto
        return
      </CharString>
      <CharString index="153">
        -21 170 -20 return
      </CharString>
      <CharString index="154">
        rlinecurve
        28 callsubr
        return
      </CharString>
      <CharString index="155">
        4 -25 rlineto
        return
      </CharString>
      <CharString index="156">
        -13 callgsubr
        25 4 49 4 44 1 rrcurveto
        return
      </CharString>
      <CharString index="157">
        22 -22 23 -22 -22 -23 -23 -22 -22 23 -24 22 22 22 24 22 vhcurveto
        return
      </CharString>
      <CharString index="158">
        20 vvcurveto
        24 4 24 7 25 vhcurveto
        -21 7 -7 -20 -7 -19 -9 -19 rlinecurve
        return
      </CharString>
      <CharString index="159">
        62 callsubr
        108 return
      </CharString>
      <CharString index="160">
        hvcurveto
        -8 -44 rlineto
        hintmask 10000000
        8 -7 rlineto
        return
      </CharString>
      <CharString index="161">
        21 -5 4 11 10 19 6 7 rlinecurve
        return
      </CharString>
      <CharString index="162">
        55 -55 68 return
      </CharString>
      <CharString index="163">
        -1 5 7 0 5 hhcurveto
        102 109 61 102 100 -81 31 -100 return
      </CharString>
      <CharString index="164">
        -24 vvcurveto
        22 hlineto
        4 45 10 32 29 36 rrcurveto
        14 vlineto
        13 return
      </CharString>
      <CharString index="165">
        -20 13 callsubr
        return
      </CharString>
      <CharString index="166">
        -2 22 0 17 22 vvcurveto
        -22 hlineto
        return
      </CharString>
      <CharString index="167">
        5 46 64 3 46 hhcurveto
        return
      </CharString>
      <CharString index="168">
        8 -7 rlineto
        426 hlineto
        return
      </CharString>
      <CharString index="169">
        46 callsubr
        23 7 return
      </CharString>
      <CharString index="170">
        49 1 rrcurveto
        4 -43 return
      </CharString>
      <CharString index="171">
        -1 7 8 0 7 hhcurveto
        123 120 76 123 return
      </CharString>
      <CharString index="172">
        -2 -4 24 hvcurveto
        5 22 -18 5 -10 3 -18 9 rlinecurve
        return
      </CharString>
      <CharString index="173">
        hvcurveto
        4 25 return
      </CharString>
      <CharString index="174">
        -194 -21 return
      </CharString>
      <CharString index="175">
        10 callgsubr
        33 callgsubr
        hintmask 00110000
        return
      </CharString>
      <CharString index="176">
        -4 -30 -40 -4 -40 hhcurveto
        -19 -18 1 4 -18 hvcurveto
        return
      </CharString>
      <CharString index="177">
        28 callsubr
        hintmask 0111000100000000
        5 return
      </CharString>
      <CharString index="178">
        -20 26 callgsubr
        return
      </CharString>
      <CharString index="179">
        20 3 21 hhcurveto
        return
      </CharString>
      <CharString index="180">
        1 15 hhcurveto
        return
      </CharString>
      <CharString index="181">
        38 rmoveto
        -66 callgsubr
        return
      </CharString>
      <CharString index="182">
        92 101 vvcurveto
        14 -2 13 -2 15 vhcurveto
        19 3 return
      </CharString>
      <CharString index="183">
        -21 235 -20 hstem
        return
      </CharString>
      <CharString index="184">
        vhcurveto
        -18 -3 -26 -6 -19 -23 callsubr
        return
      </CharString>
      <CharString index="185">
        37 50 -2 -6 -30 callgsubr
        -28 7 return
      </CharString>
      <CharString index="186">
        10 -9 18 -9 13 -3 rrcurveto
        5 hlineto
        27 return
      </CharString>
      <CharString index="187">
        -4 3 rcurveline
        -2 -10 -23 -3 -11 hhcurveto
        -26 return
      </CharString>
      <CharString index="188">
        2 22 23 1 22 hhcurveto
        return
      </CharString>
      <CharString index="189">
        5 32 50 10 callsubr
        return
      </CharString>
      <CharString index="190">
        77 220 75 return
      </CharString>
      <CharString index="191">
        4 27 vhcurveto
        return
      </CharString>
      <CharString index="192">
        316 -21 -21 55 144 -46 46 return
      </CharString>
      <CharString index="193">
        -55 -193 52 752 30 43 -20 return
      </CharString>
      <CharString index="194">
        -14 rrcurveto
        endchar
      </CharString>
      <CharString index="195">
        -75 -12 -99 -109 -275 vhcurveto
        return
      </CharString>
      <CharString index="196">
        hhcurveto
        -47 -77 -52 -129 -20 hvcurveto
        return
      </CharString>
      <CharString index="197">
        -1 -26 hhcurveto
        hintmask 01000000
        return
      </CharString>
      <CharString index="198">
        -20 hstemhm
        234 77 return
      </CharString>
      <CharString index="199">
        138 vvcurveto
        59 vlineto
        return
      </CharString>
      <CharString index="200">
        22 7 72 callsubr
        return
      </CharString>
      <CharString index="201">
        10 callsubr
        37 return
      </CharString>
      <CharString index="202">
        -21 596 return
      </CharString>
      <CharString index="203">
        hvcurveto
        3 24 return
      </CharString>
      <CharString index="204">
        vhcurveto
        -17 -3 return
      </CharString>
      <CharString index="205">
        5 -32 hvcurveto
        return
      </CharString>
</ttFont>
